<?xml version="1.0" encoding="UTF-8"?><svg id="logo_medidata" xmlns="http://www.w3.org/2000/svg" width="200" height="35" viewBox="0 0 200 35"><path d="M183.57581,15.33445h-17.22827c-.87903,0-.93501.27161-.9648.4181l-.20487.95644h8.17938l-3.0957,14.55305h.97074c.73968,0,.92669-.24064,1.02914-.71587l2.94085-13.83717h7.49448c.53124,0,.60748-.1036.70395-.54314l.1751-.83139Z"/><path d="M161.21802,21.48536l-.28824,1.35425-11.65625.0024.28111-1.32096c.52647-2.51919,2.4799-4.51786,6.77744-4.51786,3.83181,0,5.56488,1.28991,4.88594,4.48216M160.13292,31.26079c.73968,0,.92669-.24064,1.02912-.71587l1.99274-9.50746c.73848-3.45658-2.04514-5.70301-6.72026-5.70301-5.06939,0-7.94234,2.44889-8.63319,5.7483l-2.12972,10.17921,1.82002-.00116,1.42339-6.72858h11.65385l-1.43053,6.72858h.99459Z"/><path d="M197.94516,21.48536l-.28824,1.35425-11.65625.0024.28111-1.32096c.52647-2.51919,2.4799-4.51786,6.77744-4.51786,3.83181,0,5.56488,1.28991,4.88594,4.48216M196.86006,31.26079c.73968,0,.92669-.24064,1.02912-.71587l1.99274-9.50746c.73848-3.45658-2.04514-5.70301-6.72026-5.70301-5.06939,0-7.94234,2.44889-8.63319,5.7483l-2.12972,10.17921,1.82002-.00116,1.42339-6.72858h11.65385l-1.43053,6.72858h.99459Z"/><path d="M126.82044,15.33445l.24774.99577c.08459.42522.41332.69203.68847.69203h3.29225c1.03626,0,4.01405-.03097,5.56012.10367,1.36025.11908,2.5335.60028,3.53761,1.39002.96956.76589,1.57942,1.93672,1.71997,3.16833.08099.71348.02143,1.53295-.13698,2.2345-.83139,3.6877-3.77107,5.35885-7.04425,5.62922l-2.3453.02385h-4.90262l1.99392-9.8088h-1.05533c-.43238,0-.75755.26913-.81353.53958l-2.33221,10.95942h7.39086c5.77453,0,10.17568-1.89267,11.02734-8.06626.65272-4.71916-2.91346-7.86132-8.79877-7.86132h-8.02929Z"/><path d="M18.28024.0198c3.36013-.14889,7.33606.52053,8.07575,2.73715,1.21375,3.63412-4.93836,8.93219-10.30075,11.53237-1.3138.63729-2.11065.81235-2.44297.76829-.31684-.04049-.36567-.33587-.26324-.53958.19177-.38233,1.05532-1.16014,2.21309-2.00586,6.03656-4.4083,7.99833-7.64213,6.85963-8.95356-.73135-.83852-3.79132-1.42223-6.96802-1.42223-.86236,0-3.12905.18706-3.36251-.55863-.18939-.6122,2.85272-1.41023,6.18902-1.55796"/><path d="M10.77157,16.58154c2.79197-.14649,6.18426.29065,8.09004,1.59729.94693.64914,1.61277,1.84381,1.22685,3.21246-1.09939,3.8866-5.20397,8.58788-14.32314,12.20172-2.90036,1.14822-5.18016,1.58776-5.65898,1.2793-.51456-.33115.98148-2.89563,1.43172-3.74724,1.45554-2.75627,3.27437-5.43983,5.04794-7.89832.65273-.90402,1.6616-2.47274,2.574-2.34646.8171.11196-.14055,1.77955-.76946,2.83958-1.05771,1.77838-3.97236,6.71906-3.01113,7.01328,2.12495.65393,12.09695-6.14371,10.62712-9.93028-.68251-1.7581-5.01221-1.92487-7.73867-1.92487-1.23995,0-3.94854.26208-4.09862-.58836-.16199-.78618,4.11529-1.57584,6.60234-1.70808"/><path d="M32.53953,11.99135c1.69019.27633,3.06711.48956,3.38396,1.13397.35495.73129-1.48532.77542-2.4132.79206-4.44524.07859-7.12643.15725-7.25984,1.52226-.1751,1.75803,1.89983,3.52689,3.94734,6.00798,1.87125,2.26431,3.99857,4.49881,3.38515,6.58326-.7635,2.59546-4.28444,3.14456-7.63742,3.14456-3.21124.00233-6.25334-.46339-7.53141-.69203-1.59252-.28469-1.35549-.99461-.93145-1.22448.47406-.25489,3.18027-.26085,5.06223-.36212,1.54725-.08215,6.04371-.07982,6.74408-1.12081.85998-1.2745-1.24471-3.45542-3.17789-5.73878-2.41081-2.85034-5.05985-5.79243-3.65791-7.94114,1.81407-2.78011,7.12048-2.58949,10.08635-2.10473"/><path d="M74.12297,16.36061l-3.16598,14.90084h16.08956l.3347-1.59256c.13937-.64914-.02858-.86709-.84092-.86709h-10.68667l.90405-4.27373h9.45149c.26681,0,.46334-.16081.50979-.3776l.3621-1.69376c.04526-.21795-.08457-.38117-.35257-.38117h-9.45029l.9112-4.26653h10.31147c.48359,0,.97076,0,1.09582-.59316l.39902-1.88198h-14.52205c-.75636,0-1.20303.32162-1.35073,1.02674"/><path d="M105.78121,15.3335h-12.47096s-.02859.11196-.05241.20487c-.2811,1.07203-.13579,2.25595,1.8367,2.25595h9.06557c4.36184,0,4.98599,1.99394,4.1141,5.50774-.85522,3.45186-2.34888,5.23017-5.62326,5.49938h-6.20688l1.9153-9.03935h-3.66981c-.43118,0-.75755.26797-.81235.53958l-2.33458,10.95942h10.31504c5.77571,0,9.77785-1.9618,11.02972-8.06626.93145-4.5417-1.22208-7.86132-7.10619-7.86132"/><path d="M69.14947,15.33539h-3.94258l-7.63504,6.20573-4.99672-6.20573h-3.9402c-.64677,0-1.00054.3776-1.13513,1.02914l-3.16836,14.88652h3.34584c.70276,0,1.09225-.32395,1.21851-.91951l2.37508-11.13935,3.84849,5.02058c.11197.21679.43118.486.91715.486h1.7295c.48597,0,.92073-.26921,1.12917-.486l5.97939-5.02058-2.37032,11.14888c-.12625.59556.12507.91951.8302.91951h3.34823l3.16717-14.89604c.1334-.65154-.05241-1.02914-.70037-1.02914"/><path d="M122.54233,15.3335h-3.46971l-3.38516,15.92758h4.12364l3.24221-15.388c.05718-.25612-.14055-.53958-.51099-.53958"/></svg>