<?xml version="1.0" encoding="UTF-8"?><svg id="Layer_1" xmlns="http://www.w3.org/2000/svg" width="200" height="35" viewBox="0 0 200 35"><path d="M10.20971,21.36483h9.15754l-4.52923-15.6843-4.62831,15.6843ZM29.67597,33.66378h-6.5726v-.00755l-2.14264-6.8701h-12.29886l-2.08923,6.8701H0L10.4537.49562h8.76093l10.46134,33.16816ZM46.35168,28.1357c4.23943,0,5.38319-1.69272,5.38319-4.87989v-12.35225c0-3.18719-1.15149-4.87992-5.38319-4.87992h-5.42903v22.11206h5.42903ZM58.00998,9.4091v15.33362c0,4.72746-2.83629,8.91351-11.00257,8.91351h-12.34478V.49562h12.34478c8.16628,0,11.00257,4.13269,11.00257,8.91348ZM75.18899,5.37553c-4.23189,0-4.97911.8921-4.97911,3.78195h-.00773c0,3.78193.09923,3.88106,5.82556,5.27642,8.91351,2.14258,9.36324,3.58368,9.36324,10.20978,0,6.26756-1.84514,9.50812-11.65075,9.50812-3.78197,0-8.16628-.94549-10.35457-1.99002l1.09792-4.92572c3.08058.94549,6.06948,1.54029,9.35569,1.54029,4.52919,0,5.27642-.94549,5.27642-4.13266,0-3.68293-.09904-3.98023-6.07703-5.27642-8.01366-1.79193-9.11158-3.33978-9.11158-10.35466,0-6.02364,2.74498-9.0126,11.15518-9.0126,2.88986,0,6.37434.35074,9.66073,1.09798l-.69384,5.27641c-2.73743-.60236-5.97044-.99886-8.86011-.99886ZM104.2091,17.37709c3.53805,0,4.58258-1.29622,4.58258-4.03356v-3.38543c0-2.73734-1.14376-3.93445-4.58258-3.93445h-6.32095v11.35345h6.32095ZM115.06698,9.46247v4.52155c0,5.77205-3.08813,8.91356-10.80449,8.91356h-6.37434v10.75865h-6.27529V.50324h12.94712c7.66298,0,10.507,3.13383,10.507,8.95922ZM140.61035,33.64849h-20.3126V.49562h20.3126v5.52803h-14.03731v8.00612h12.94695v5.52803h-12.94695v8.56281h14.03731v5.52788ZM160.42738,17.26272c3.43128,0,4.52919-1.24285,4.52919-4.02592v-3.2787c0-2.79071-1.19714-3.93445-4.52919-3.93445h-7.06818v11.23907h7.06818ZM166.24522,21.79947l8.21966,11.84902-.00774.00773h-7.51809l-7.61733-10.95691h-5.97025v10.95691h-6.2753V.49562h13.59531c7.70862,0,10.55264,3.13383,10.55264,8.95923v4.33093c0,3.9802-1.49445,6.77091-4.97891,8.0137ZM200.00014,6.02364h-9.26438v27.63258h-6.27474V6.02364h-9.25666V.49562h24.79578v5.52803Z" style="fill:#fff; fill-rule:evenodd;"/></svg>