<?xml version="1.0" encoding="UTF-8"?><svg id="Layer_1" xmlns="http://www.w3.org/2000/svg" width="200" height="48" viewBox="0 0 200 48"><path id="path9017" d="M0,.00005v46.98501h29.1827v-7.34381H8.53531v-12.63988h15.81796v-7.34609h-15.81796V7.34612h19.58955V.00005H0ZM186.96145.00005v36.46536c0,9.66181,5.75756,10.85036,10.39052,10.85036,1.3902,0,2.64803-.19933,2.64803-.19933v-7.34381s-.59688.06564-1.25719.06564c-2.18504,0-3.44312-.92567-3.44312-4.63236V0l-8.33824.00005ZM127.27087,12.44058c-7.28039,0-12.90491,3.64082-12.90491,9.92842,0,10.85098,16.41145,10.18956,16.41145,15.21995,0,1.98556-2.05159,3.04444-4.43303,3.04444-5.49276,0-9.20128-3.70588-9.20128-3.70588l-3.83728,5.88728s4.69738,4.96534,13.10199,4.96534c8.00718,0,12.90716-4.49974,12.90716-10.12549,0-10.85406-16.41371-10.2562-16.41371-15.02061,0-2.12009,2.11659-3.04444,4.30163-3.04444,5.16029,0,8.27256,2.9108,8.27256,2.9108l3.11013-6.22027s-3.70497-3.83954-11.31473-3.83954h0ZM162.0781,12.4429c-10.25716,0-18.52943,7.34498-18.52943,17.66864,0,10.39016,8.27373,17.67091,18.59739,17.67091,10.25716,0,18.52716-7.28076,18.52716-17.67091,0-10.32366-8.27145-17.66864-18.59512-17.66864h0ZM88.19372,12.85517c-9.01697,0-16.95964,6.72544-16.95964,17.38776,0,10.66077,7.94267,17.45798,16.95964,17.45798,4.15049,0,9.01567-1.85952,11.23318-5.50899v4.79546h7.2985V13.57098h-7.2985v4.7207c-2.2902-3.79019-7.2265-5.43651-11.23318-5.43651ZM59.58411,13.51435l-6.35166,8.39034,4.93589,6.43547,11.29888-14.80995-9.88311-.01585ZM162.14606,19.58964c5.42626,0,9.99185,4.30079,9.99185,10.5219,0,6.28605-4.56559,10.52191-9.99185,10.52191-5.49275,0-10.0598-4.23586-10.0598-10.52191,0-6.2211,4.56705-10.5219,10.0598-10.5219h0ZM89.04997,20.01097c5.01028,0,10.30671,3.57568,10.30671,10.16174,0,6.58142-4.86808,10.3724-10.30671,10.3724-5.57936,0-10.23197-4.21934-10.23197-10.3724,0-6.15461,4.6526-10.16174,10.23197-10.16174h0ZM58.16834,32.16151l-4.93589,6.43319,6.35166,8.39035,9.88311-.01357-11.29888-14.80997Z" style="fill:#fff;"/><path id="path9045" d="M33.68457,46.9857l12.85973-16.76435-12.79942-16.68549,9.87675.0058,12.79478,16.67929-12.85819,16.76435-9.87366.00039Z" style="fill:#fff;"/></svg>