<?xml version="1.0" encoding="UTF-8"?><svg id="Layer_1" xmlns="http://www.w3.org/2000/svg" width="200" height="70" viewBox="0 0 200 70"><path d="M25.69394,35.90961H1.13507c-.61913,0-1.13507-.51594-1.13507-1.13507s.51594-1.13507,1.13507-1.13507h24.55887c4.02435,0,7.2232-3.30203,7.2232-7.42957V1.13507c0-.61913.51594-1.13507,1.13507-1.13507s1.13507.51594,1.13507,1.13507v25.07481c0,5.3658-4.23073,9.69972-9.49334,9.69972Z" style="fill:#fff;"/><path d="M23.52698,28.06728H4.12754c-.61913,0-1.13507-.51594-1.13507-1.13507s.51594-1.13507,1.13507-1.13507h19.39944c.9287,0,1.75421-.82551,1.75421-1.75421V3.50841c0-.61913.51594-1.13507,1.13507-1.13507s1.13507.51594,1.13507,1.13507v20.53452c0,2.16696-1.85739,4.02435-4.02435,4.02435Z" style="fill:#fff;"/><path d="M19.70901,15.2719c0,2.57971-2.06377,4.64348-4.54029,4.64348s-4.54029-2.06377-4.54029-4.64348,2.06377-4.64348,4.54029-4.64348,4.54029,2.16696,4.54029,4.64348" style="fill:#fff; fill-rule:evenodd;"/><path d="M31.88526,69.34269c-.61913,0-1.13507-.51594-1.13507-1.13507v-25.07481c0-5.3658,4.23073-9.69972,9.49335-9.69972h24.55887c.61913,0,1.13507.51594,1.13507,1.13507s-.51594,1.13507-1.13507,1.13507h-24.55887c-4.02435,0-7.2232,3.30203-7.2232,7.42957v25.07481c0,.61913-.51594,1.13507-1.13507,1.13507Z" style="fill:#fff;"/><path d="M39.52121,66.96936c-.61913,0-1.13507-.51594-1.13507-1.13507v-20.43133c0-2.27015,1.75421-4.02435,4.02435-4.02435h19.39944c.61913,0,1.13507.51594,1.13507,1.13507s-.51594,1.13507-1.13507,1.13507h-19.39944c-.9287,0-1.75421.82551-1.75421,1.75421v20.53452c0,.51594-.51594,1.03189-1.13508,1.03189Z" style="fill:#fff;"/><path d="M46.22846,54.07079c0-2.57971,2.06377-4.64348,4.5403-4.64348s4.5403,2.06377,4.5403,4.64348-2.06377,4.64348-4.5403,4.64348-4.5403-2.16696-4.5403-4.64348" style="fill:#fff; fill-rule:evenodd;"/><path d="M65.11196,28.06728h-20.12176c-2.16696,0-4.02435-1.85739-4.02435-4.02435V4.23073c0-.61913.51594-1.13507,1.13507-1.13507s1.13507.51594,1.13507,1.13507v19.8122c0,1.03189.82551,1.75421,1.75421,1.75421h20.12176c.61913,0,1.13508.51594,1.13508,1.13507s-.51594,1.13507-1.13507,1.13507Z" style="fill:#fff;"/><path d="M53.55485,20.12176c-2.47653,0-4.5403-2.06377-4.5403-4.64348s2.06377-4.64348,4.5403-4.64348,4.5403,2.06377,4.5403,4.64348-2.06377,4.64348-4.5403,4.64348" style="fill:#fff; fill-rule:evenodd;"/><path d="M24.04293,66.35023c-.61913,0-1.13507-.51594-1.13507-1.13507v-19.8122c0-1.03189-.82551-1.75421-1.75421-1.75421H1.13507c-.61913,0-1.13507-.51594-1.13507-1.13507s.51594-1.13507,1.13507-1.13507h20.12176c2.16696,0,4.02435,1.85739,4.02435,4.02435v19.8122c-.10319.61913-.51594,1.13508-1.23826,1.13507Z" style="fill:#fff;"/><path d="M12.69219,49.32412c2.47653,0,4.5403,2.06377,4.5403,4.64348s-2.06377,4.64348-4.54029,4.64348-4.5403-2.06377-4.5403-4.64348,2.06377-4.64348,4.5403-4.64348" style="fill:#fff; fill-rule:evenodd;"/><path d="M84.0161,20.94727h4.12754v30.64699c0,4.33392-2.16696,6.50088-6.50088,6.50088h-2.57971v-3.40522h1.7542c1.13507,0,1.96058-.20638,2.47653-.72232s.72232-1.23826.72232-2.37334c0,0,0-30.64699,0-30.64699ZM88.14364,16.09741c-.51594.51594-1.23826.82551-2.06377.82551s-1.44464-.20638-1.96058-.82551-.82551-1.23826-.82551-2.06377.30957-1.44464.82551-2.06377,1.23826-.72232,1.96058-.72232,1.44464.30957,1.96058.82551.82551,1.23826.82551,2.06377-.20637,1.44464-.72232,1.96058Z" style="fill:#fff;"/><path d="M105.37613,43.1328c2.37334,0,4.43711-.82551,6.08812-2.57971,1.7542-1.65101,2.57971-4.02435,2.57971-7.01682s-.82551-5.3658-2.47653-7.01682-3.71479-2.47652-6.08812-2.47652-4.33392.82551-5.98494,2.47652c-1.54783,1.65102-2.37334,4.02435-2.37334,7.01682s.72232,5.3658,2.27014,7.01682c1.7542,1.75421,3.71479,2.57971,5.98495,2.57971ZM96.50192,43.02962c-2.27014-2.37334-3.40522-5.57218-3.40522-9.39016s1.23826-7.01682,3.6116-9.39016,5.3658-3.71479,9.08059-3.71479,6.70725,1.23826,9.08059,3.6116,3.6116,5.57218,3.6116,9.39016-1.23826,7.01682-3.81797,9.39015c-2.47653,2.37334-5.57218,3.6116-9.28697,3.6116s-6.60407-1.13507-8.87422-3.50841Z" style="fill:#fff;"/><polygon points="120.44165 20.94727 124.87876 20.94727 132.6179 42.3073 140.35704 20.94727 144.89733 20.94727 134.99124 46.22846 130.24456 46.22846 120.44165 20.94727" style="fill:#fff;"/><path d="M159.03416,46.64122c-3.6116,0-6.50088-1.23826-8.77103-3.6116s-3.40522-5.57218-3.40522-9.49335,1.13508-7.01682,3.40522-9.39016c2.27014-2.37334,5.26262-3.50841,8.9774-3.50841s6.60406,1.13507,8.77103,3.40522c2.27014,2.27015,3.30203,5.15943,3.30203,8.56465,0,.9287-.10319,1.75421-.20637,2.47653h-20.01857c.10319,2.47653.92869,4.5403,2.37334,5.98493s3.30203,2.16696,5.57217,2.16696c1.7542,0,3.19885-.41276,4.33392-1.13507s2.06377-1.75421,2.57971-2.99247h4.54029c-.82551,2.16696-2.16697,4.02435-4.12754,5.46899-1.96058,1.34145-4.33392,2.06377-7.32639,2.06377h.00002ZM166.97967,31.98844c0-2.37334-.82551-4.33392-2.27014-5.77856s-3.40522-2.16696-5.57217-2.16696-4.02435.72232-5.57217,2.16696c-1.44463,1.44464-2.27014,3.40522-2.47652,5.88175h15.89103v-.10319h-.00002Z" style="fill:#fff;"/><path d="M186.89506,43.1328c2.37334,0,4.43711-.82551,6.08812-2.57971,1.7542-1.65101,2.57971-4.02435,2.57971-7.01682s-.82551-5.3658-2.47652-7.01682-3.71479-2.47652-6.08812-2.47652-4.33392.82551-5.98494,2.47652c-1.54783,1.65102-2.37334,4.02435-2.37334,7.01682s.72232,5.3658,2.27014,7.01682c1.7542,1.75421,3.71479,2.57971,5.98494,2.57971ZM178.02084,43.02962c-2.27014-2.37334-3.40522-5.57218-3.40522-9.39016s1.23826-7.01682,3.6116-9.39016,5.469-3.6116,9.08059-3.6116,6.70725,1.23826,9.08059,3.6116,3.6116,5.57218,3.6116,9.39016-1.23826,7.01682-3.81797,9.39015c-2.47652,2.37334-5.57217,3.6116-9.28697,3.6116s-6.60406-1.23826-8.87422-3.61159Z" style="fill:#fff;"/></svg>