<?xml version="1.0" encoding="UTF-8"?><svg id="Layer_1" xmlns="http://www.w3.org/2000/svg" width="200" height="82" viewBox="0 0 200 82"><path d="M44.03388,7.38511c0,4.07931,3.30574,7.38918,7.38915,7.38918s7.38932-3.30579,7.38932-7.38918c0-4.07931-3.30591-7.38511-7.38932-7.38511-4.07931,0-7.38915,3.30579-7.38915,7.38511Z" style="fill:#fff;"/><path d="M162.11905,81.8591s-.96884-1.14807-1.30275-1.54697c-2.25129-2.70732-4.66546-5.34949-7.01055-7.97956-.59432-.66766-1.17655-1.31503-1.75877-1.96223-1.04218-1.15626-2.12101-2.3572-3.28938-3.69253-7.49096-8.06107-10.49144-16.11789-9.44109-25.35534,1.71393-15.06327,14.53818-26.83718,29.82536-27.3868,2.28814-.08142,4.59213.09364,6.84837.52925,10.70649,2.05594,18.13691,8.27263,22.08491,18.48319,2.58538,6.68073,2.56491,13.60174-.05288,20.57153-3.31017,8.8019-9.48201,15.03087-18.34837,18.51176-3.17545,1.24579-6.47711,1.93784-9.81542,2.05995-2.23509.08135-4.53534-.09363-6.83558-.52117-.14649-.02848-.26059-.0365-.36223-.03257-.17514.00819-.31362.06105-.40725.16696-.14649.15878-.16679.38269-.15058.69614.04877,1.01778.0162,7.46657.0162,7.46657v-.00818ZM181.93355,51.70801c-.49286,1.76696-1.53145,3.26106-3.17545,4.56791-2.35687,1.8727-5.23898,2.93943-8.56997,3.17136-.2483.01637-.49252.02848-.7369.04076-3.72101.13439-6.83951-.72872-9.52243-2.63808-1.76287-1.25398-2.85381-2.78065-3.33423-4.67364-.27286-1.07491-1.10731-1.74667-2.12117-1.71-.14241.00409-.28907.02439-.43556.05696-1.17246.27286-1.86059,1.39655-1.60819,2.62188.40316,1.93375,1.34352,3.70071,2.79294,5.25996,2.68702,2.88246,6.17593,4.572,10.67868,5.15815,1.27019.16696,2.53218.22801,3.75359.18333,3.09853-.11,6.02159-.87129,8.93611-2.32479,3.57452-1.8889,5.91944-4.3723,7.16607-7.5967.11256-.29316.21489-.60661.30527-.93234.37008-1.32714-.16372-2.45492-1.32339-2.80913-.24387-.07333-.49285-.10591-.74184-.09772-.97208.03667-1.78725.71252-2.06694,1.7262l.00341-.00409Z" style="fill:#fff;"/><path d="M83.34126,71.87655c-1.50228,0-3.11849-.13848-4.79575-.42345-7.38113-1.2255-12.26249-5.87476-14.12291-13.46343-.68813-2.77247-1.07082-5.85429-1.13989-9.14793-.13029-5.82581-.07742-21.23118-.07742-23.2016,0-4.3399,2.58112-5.49206,5.50007-5.49206,2.91913,0,5.63054.74509,5.64674,5.29253.02456,7.71096-.10983,15.45022.19135,23.1692.06515,2.76019.43573,5.27207,1.09521,7.47049,1.04626,3.4606,3.68843,5.32102,7.65382,5.37405,4.04264,0,6.70512-1.76287,7.87365-5.09709.64737-1.8524,1.02596-4.05083,1.07474-6.35516.09772-4.58411-.35421-9.37185-.3624-13.88672-.00392-2.74006.07333-7.31599.06924-10.99623-.00409-4.97499,3.93282-4.97499,5.86657-4.97499,2.23919,0,5.76885,0,5.86247,5.07663.07333,3.8351-.09363,7.59277-.10164,11.43606-.00818,4.30715-.02047,8.76523.07725,13.13753.04486,2.29615.41117,4.50276,1.06263,6.38774,1.17655,3.43604,3.87569,5.25996,7.8085,5.27633,3.93675,0,6.65225-1.80363,7.8329-5.21119.65948-1.89725,1.02597-4.20551,1.08702-6.85996.10591-4.6085.09363-9.31488.07743-13.85414,0-3.59481-.03667-6.9292-.00818-10.43857.04076-4.95452,3.36679-4.95452,5.80961-4.95452,1.90118,0,4.95452,0,5.23949,5.14587.13848,2.47931.11,4.40914.13029,6.88026.05696,6.31031.10591,12.40489-.14649,18.40994-.13848,3.42376-.94462,7.13675-2.39796,11.0491-1.7465,4.69411-5.49616,7.93471-10.83747,9.37184-2.05994.55375-4.16082.83053-6.24107.83053-6.5506,0-12.09962-2.71141-15.11221-7.31582-.05696.07316-.11.14649-.16696.22392-3.47679,4.79984-8.2074,7.13266-14.45274,7.13266l.00409.00818Z" style="fill:#fff;"/><path d="M19.85117,71.85643c-5.52054,0-11.05328.17907-16.52901-.5986-1.45341-.20755-2.42642-.83445-2.91496-2.231-.43154-1.22533-.5089-2.65837-.28498-3.93265.30534-1.74649,1.24578-3.28135,2.32464-4.65335,5.79327-7.40961,11.45628-14.86391,17.50611-22.0658.41919-.49661,5.02376-6.5668,4.74288-6.68482-.81023-.33801-1.71393-.37058-2.5934-.39497-4.20142-.1059-14.40787.17105-15.37681.16696-6.36731-.03257-6.36731-4.7144-6.36731-5.63037,0-1.06263,0-5.5654,5.79329-5.5816,4.55563-.01228,9.18048-.14666,13.74029-.13439,5.41873.0162,10.83337.15059,16.24392.45193,1.66924.09363,3.09001.28497,3.831,1.93784.56994,1.27427.63509,2.80913.45995,4.17703-.27679,2.18615-1.29048,4.25838-2.64217,5.9764-6.18821,7.88184-12.43747,15.92245-18.49129,23.71867l-3.19989,4.11598c-.31349.40298-.6229.81433-.94859,1.25807.67176.0365,1.29464.06105,1.90947.06515h11.11834c2.43855,0,8.26436.07725,8.72038.08954,4.37247.1262,4.37247,3.48498,4.37247,5.06043,0,1.57562,0,4.90574-4.31943,4.90574-1.54714,0-10.91079-.06105-13.93975-.03257-1.05445.00819-2.10889.01637-3.15925.01637h.00409Z" style="fill:#fff;"/><path d="M56.3003,71.8769c-5.47569-.02865-10.34068-2.49568-10.51173-9.47775-.1262-5.203-.15468-10.48325-.18316-15.59671l-.00819-2.00708c-.02848-4.90984-.02439-10.18191.0041-16.1259.00409-.98112.10181-2.47522.10573-3.51756.03257-4.99528,3.20001-5.03195,5.44329-4.99528,2.59323.04076,5.56932,0,5.56932,4.99528,0,1.49819-.13439,29.5201-.13439,29.5201-.02029.88749-.03257,1.71802.05304,2.52825.30663,2.972,1.34198,4.54881,3.10621,4.73078,1.23352.1262,3.35059-.37877,4.11188.91597.35831.6148.39088,1.35563.41526,2.06814.05287,1.6203.10181,3.2406.15468,4.8609.00818.19544.00818.40725-.11392.55784-.09363.11801-.24439.17497-.39088.22392-2.39796.83053-5.0768,1.33942-7.62125,1.32714v-.00801Z" style="fill:#fff;"/></svg>