<?xml version="1.0" encoding="UTF-8"?><svg id="logo_equine-coach" xmlns="http://www.w3.org/2000/svg" width="200" height="200" xmlns:xlink="http://www.w3.org/1999/xlink" viewBox="0 0 200 200"><defs><clipPath id="clippath"><rect y="0" width="200" height="200" style="fill:none;"/></clipPath></defs><g style="clip-path:url(#clippath);"><path d="M79.48775,110.00918l5.73519-14.58291c4.07587-7.04199,11.87869-11.60675,14.19677-19.67611,1.8324-.38888,1.27176.21175,1.78075,1.01478,3.53109,5.57097,2.146,12.77772,1.40221,18.90195,4.52707-4.29955,5.6305-10.83147,4.58553-16.94299-.7921-4.63262-4.64798-8.59853-2.20704-14.12729-26.27566-.63173-53.03313,8.15306-72.51519,25.88-1.98886,1.80969-10.02394,11.26359-10.75662,11.55752-1.76166.70672-2.16514-4.32712-1.60047-5.54372.4733-1.01974,4.84009-5.68382,5.9847-6.80866,22.38585-21.99929,51.78225-29.73998,82.50995-29.10603,3.76628.0777,10.9959,3.15718,12.3134-2.35377-30.88175-5.41205-67.09451,2.70014-91.20455,23.12677-3.42696,2.90341-6.56973,7.32082-9.97843,9.94102-.79914.61428-1.01118,1.54494-2.39144,1.18617-1.13897-7.97301-3.59901-16.22885-3.98101-24.30608-.88486-18.71033,7.14686-40.55703,13.94821-57.75169,1.64315-.43105,1.74772,2.69748,1.88621,3.67088,1.40986,9.90936.83229,27.54751,6.60667,35.62502,4.53577,6.34488,11.77336,1.08069,13.05291-4.99737,2.07066-9.83596.91828-26.10384-.57419-36.16632-1.98746-13.39983-6.58134-26.07245-11.01556-38.77558,15.067,11.27368,34.14453,27.83787,35.04716,48.22691.35401,7.99645-6.03916,20.2965,3.42993,25.23314,13.35714,6.96364,21.20918-18.36938,18.79212-28.35227-2.9675-12.25634-15.89441-15.14274-19.98727-25.42748-7.76261-19.50627,3.66284-52.34103,20.86789-64.30055-3.68958,18.26879-5.68422,43.78832,10.78363,56.55269,11.16281,8.65239,15.1021.32238,16.21832-10.83438,1.51629-15.15554-3.6309-25.68062-5.38139-39.84196-2.22921-18.03413.81015-35.84819,3.09183-53.68005,1.62403-.30282,1.90153.73031,2.44294,1.93157,2.80207,6.21711,4.49206,19.46569,6.5443,26.92079,2.7641,10.04103,5.67684,20.79543,9.32065,30.51877,10.19447,27.20348,36.98457,60.26669,20.57408,89.86623-4.30172,7.75899-19.23225,19.16272-6.78323,26.21935,9.08012,5.14699,17.78826.70876,21.42348-8.39194l6.22286-30.01505c8.29963,24.44506,10.02622,49.90316-.38845,74.07936-11.47335-11.33021-25.22608-20.35814-40.66503-25.29651l-1.92873,2.61449c15.06639,6.86422,31.03685,14.41408,41.24592,27.71913l-79.53837,174.25342-1.76565-1.01328c-18.16895-43.21174-40.6984-84.35982-60.37996-126.86405l.40156-1.19423c12.05934,6.96086,24.74853,12.53161,33.84507,23.52365l8.78022,13.11936c-.17415-31.90502-44.99662-41.44355-36.10814-76.34926.28494-1.11899.48633-3.94322,1.84434-4.11646,3.0955,15.11299,9.90322,29.58266,20.71871,40.62997-4.75463-10.19513-9.10325-20.22833-7.95211-31.871,9.60629,10.55745,18.38028,20.24718,22.52822,34.43396,1.4175,4.84812,1.86944,10.32705,3.20607,15.12805.22834.82018.19435,2.41241,1.34043,2.225,1.19754-11.06172.14673-20.7228-3.37053-31.27763-4.51989-13.56355-19.7094-33.76697-9.69676-46.73201,7.97568-10.32745,18.26581-6.30292,9.09155,4.70107l4.75093-1.21694,3.20858-6.73907c1.50844,6.25896-9.55317,20.16767-9.55317,24.29823v11.55343ZM137.65324,57.42925c-10.98843.43554-20.84084,8.71531-23.08231,19.52459l1.63388.87649c9.39121-.53233,16.54718-13.54322,21.44843-20.40108ZM148.80021,138.68959c-4.50018-22.36092,5.26005-52.29011-22.29413-62.1455.11106,11.07605-4.8834,17.21115-13.55306,23.09881,7.8403.30122,16.37587-3.89186,18.36536-11.90963,1.13435-.26964,1.90306.01608,2.80693.70648,5.63065,4.30081,2.69938,28.58127,6.49193,35.73646l8.18298,14.51339ZM119.32114,137.90691c-16.09553-1.27203-29.79278-10.20195-29.96588-27.63484l2.48633-15.39821c-12.19473,16.76386-9.83755,31.5719,7.32493,42.86547,7.63816,5.0262,18.84404,11.0053,24.95207,18.0745,5.70087,6.59796-.86075,16.93097,11.51132,17.97711.82069.06939,3.04296.48018,2.81426-.82545-4.35066-.73633-8.54547-4.66065-8.81702-9.18648-.11713-1.95206.83472-3.67974.68321-5.38148-.46315-5.20192-11.78437-11.96339-14.90398-16.22946l3.91476-4.26114ZM148.80055,150.64505l-15.91786-34.25554c-1.55141,4.28764-.93468,7.6041.64933,11.68469,2.79545,7.20141,10.60526,16.36632,15.26854,22.57085Z"/></g></svg>