<?xml version="1.0" encoding="UTF-8"?><svg id="Layer_1" xmlns="http://www.w3.org/2000/svg" width="200" height="34" viewBox="0 0 200 34"><path d="M34.15192,5.35065c0-1.76386,1.52502-3.09308,3.33867-3.09308.84939-.03103,1.67572.27998,2.29386.86336.61438.57973.96682,1.38421.97645,2.22887-.0422,1.74782-1.50561,3.13106-3.27031,3.09308-1.81449,0-3.33951-1.40096-3.33951-3.09308l.00084.00084ZM34.80598,10.99667h5.37343v16.76339h-5.37343s0-16.76339,0-16.76339ZM59.462,18.73064v9.02943h-5.37427v-8.41672c0-2.59093-1.5976-3.56316-2.9437-3.56316-1.45244,0-3.26609.75702-3.26609,3.56316v8.41587h-5.37428V10.99667h5.37343v2.98758c.58232-2.38754,3.26693-3.40956,4.86791-3.40956,4.49994-.0076,6.717,3.01375,6.71699,8.15594ZM78.52683,18.73064v9.02943h-5.37427v-8.41672c0-2.59093-1.59675-3.56316-2.94285-3.56316-1.45328,0-3.26693.75702-3.26693,3.56316v8.41587h-5.37427V10.99667h5.37427v2.98758c.58148-2.38754,3.26609-3.40956,4.86369-3.40956,4.50332-.0076,6.72038,3.01375,6.72038,8.15594ZM79.65266,19.34419c0-5.3228,4.35816-8.77708,9.18809-8.77708s9.24041,3.44079,9.24041,8.77708-4.39276,8.73995-9.22269,8.73995-9.20581-3.45429-9.20581-8.73995ZM92.57945,19.34419c0-2.30145-1.66933-3.84926-3.7387-3.84926-2.06852,0-3.74207,1.5478-3.74207,3.84926s1.67017,3.81212,3.74207,3.81212c2.07274,0,3.73195-1.51067,3.73195-3.81212,0,0,.00675,0,.00675,0ZM115.7864,10.99752l-7.1913,16.76254h-4.68561l-7.18877-16.76339h5.85279l3.70494,9.96368,3.66612-9.96368h5.84182v.00085ZM133.36083,10.99752v16.76254h-5.3287v-1.90648c-1.23638,1.58241-3.52602,2.23056-5.26794,2.23056-4.20963,0-8.20657-3.31082-8.20657-8.73995,0-5.42829,3.98936-8.74586,8.19983-8.74586,1.74191,0,4.03155.64731,5.26709,2.22972v-1.83475l5.3363.00338v.00085ZM127.80426,19.34419c.03407-1.57896-.89587-3.01982-2.34872-3.63911-1.45734-.62656-3.14845-.31603-4.28811.78741-1.13326,1.0968-1.48069,2.77499-.87602,4.23157.61229,1.46058,2.04613,2.4067,3.62983,2.39513,2.11831.00591,3.84926-1.67609,3.88301-3.77499ZM134.70778,19.30705c0-5.32279,4.39191-8.73995,9.3324-8.73995,3.26608,0,5.77262,1.58241,7.4082,3.9556l-4.13114,2.59093c-.77025-1.00906-1.96294-1.60635-3.23233-1.6187-2.46856,0-3.92099,1.72504-3.92099,3.81212,0,2.08625,1.45243,3.84926,3.92099,3.84926,1.26855-.01658,2.45962-.61335,3.23233-1.61954l4.13114,2.5884c-1.63558,2.38669-4.13114,3.95813-7.4082,3.95813-4.94049,0-9.33325-3.45344-9.33325-8.77708l.00085.00085ZM151.22811,19.30705c0-5.32279,4.39699-8.73995,9.33325-8.73995,3.27031,0,5.77684,1.58241,7.4082,3.9556l-4.13114,2.59093c-.77059-1.00866-1.96307-1.60584-3.23233-1.6187-2.46856,0-3.92099,1.72504-3.92099,3.81212,0,2.08625,1.4516,3.84926,3.92099,3.84926,1.26855-.01658,2.45962-.61335,3.23233-1.61954l4.13114,2.5884c-1.63136,2.38669-4.13114,3.95813-7.4082,3.95813-4.93712,0-9.33325-3.45344-9.33325-8.77708v.00085ZM185.73049,20.92659h-12.39427c.50638,1.58241,1.92421,2.51666,3.95559,2.51666,1.57923.00413,3.10484-.57259,4.28642-1.62038l2.75381,3.45513c-1.67271,1.80015-4.57421,2.80614-7.44617,2.80614-5.3363,0-9.15011-3.55978-9.15011-8.66737,0-5.45698,4.28558-8.84966,9.15011-8.84966s8.93406,3.34542,8.93406,8.45301c.01688.46755-.01688,1.07773-.08946,1.90648h.00003ZM180.46255,17.79554c-.03375-1.6533-1.52502-2.7268-3.44247-2.7268-1.63473,0-3.15975.71905-3.70409,2.72765h7.14657v-.00085ZM200,11.06925l-1.27099,5.07299c-.74026-.4261-1.57982-.64939-2.43396-.64731-2.1065,0-3.84841,1.72504-3.84841,6.69v5.57514h-5.37427V10.99667h5.30169v3.52603c.98151-2.76816,3.01291-3.9556,5.0848-3.9556.87443-.0354,1.74486.13637,2.54029.50131l.00085.00084Z" style="fill:#fff;"/><path d="M7.60968,20.36452L.24452,31.39749c-.2991.44693-.32575,1.02284-.0692,1.49548.2574.47346.75534.76799,1.298.76799h14.73116c.54182,0,1.04059-.29454,1.29715-.76799.2568-.47248.23047-1.04839-.06836-1.49548l-7.36347-11.03803c-.2763-.40926-.73838-.65391-1.23217-.65237-.49456,0-.9562.24728-1.22964.65575l.00169.00169Z" style="fill:#fff; fill-rule:evenodd;"/><path d="M7.60968,13.30235L.24452,2.26347C-.05431,1.81639-.08064,1.24048.17616.76799c.2574-.47261.75534-.76799,1.298-.76799h14.73115c.54182,0,1.04059.29538,1.29715.76799.25741.47346.2304,1.04819-.06836,1.49632l-7.36347,11.03803c-.27465.41119-.73685.65766-1.23132.65659-.49418.00078-.956-.24565-1.23048-.65659h.00084Z" style="fill:#fff; fill-rule:evenodd; isolation:isolate;"/><path d="M18.39789,3.02809l-7.36347,11.03803c-.29865.44815-.32464,1.02481-.06752,1.49801.25741.47346.75702.76884,1.29968.76968h14.72693c.54123-.00018,1.03912-.29606,1.29799-.77137.25644-.47277.23046-1.04857-.06752-1.49632l-7.36431-11.03887c-.27583-.40945-.73763-.65443-1.23132-.65322-.49456,0-.95704.24475-1.23048.65406Z" style="fill:#fff; fill-rule:evenodd; isolation:isolate;"/><path d="M20.8597,30.76452l7.36347-11.03887c.29797-.44775.32395-1.02356.06752-1.49632-.25881-.47445-.75586-.7699-1.29631-.77053h-14.72694c-.5435,0-1.04312.29538-1.29968.76968-.25737.47305-.23171,1.0497.06667,1.49801l7.36347,11.03803c.27344.40847.73592.65406,1.23048.65406.4954,0,.95788-.24559,1.23132-.65406Z" style="fill:#fff; fill-rule:evenodd; isolation:isolate;"/></svg>