<?xml version="1.0" encoding="UTF-8"?><svg id="Layer_1" xmlns="http://www.w3.org/2000/svg" width="64" height="64" viewBox="0 0 64 64"><rect width="64" height="64" style="fill:#03eab3;"/><path d="M20.69965,12.13977h17.12519c2.04755.00033,4.0111.81395,5.45884,2.2619,1.44771,1.44796,2.261,3.41165,2.261,5.4592v15.84782c0,2.04755-.81329,4.01124-2.261,5.45921-1.44775,1.44797-3.41129,2.26155-5.45884,2.26188h-3.25219c-.29922,0-.54159-.24237-.54159-.54159v-2.98013c-.00018-.07124.01372-.14181.04084-.20764.02715-.06586.06704-.12573.11734-.17614.0503-.05045.11009-.09044.17588-.11774.06579-.0273.13633-.04132.20753-.04132h3.25094c.96989,0,1.90007-.38521,2.58598-1.07089.68594-.68572,1.07144-1.61576,1.07177-2.58564v-15.84782c-.00033-.96989-.38584-1.89993-1.07177-2.58561-.6859-.68572-1.61609-1.07089-2.58598-1.07089h-15.2283v23.1596h9.40654v4.0646h-11.30218c-1.197,0-2.16646-.9707-2.16646-2.16772V14.30747c0-1.197.96946-2.1677,2.16646-2.1677Z" style="fill:#101010; fill-rule:evenodd;"/><path d="M28.51353,51.40701l-8.36289-6.41791c-.52708-.40453-.9541-.92482-1.24806-1.52068-.29396-.59586-.44699-1.25133-.44727-1.91575V14.30993c0-1.79425,2.06135-2.81071,3.48711-1.71759l8.3629,6.41778c.52724.40464.95436.92514,1.24832,1.52123.29396.59608.44692,1.25178.44699,1.91641v27.24164c0,1.79671-2.06135,2.813-3.48709,1.71871v-.0011Z" style="fill:#fff;"/></svg>