<?xml version="1.0" encoding="UTF-8"?><svg id="Layer_1" xmlns="http://www.w3.org/2000/svg" width="200" height="70" viewBox="0 0 200 70"><path d="M129.97883,49.54915c-.00023-.00011-.0004-.00011-.00063-.00011-.01031-.30018-.0216-.60014-.046-.89185h-.00006l-.00006-.00011h.00011c-.06852-.83628-.19145-1.63601-.36698-2.39999,0-.00011-.00006-.00011-.00006-.00023h.00006c-.07046-.30591-.14643-.60724-.23373-.90285-.00011-.00011-.00029-.00011-.0004-.00023-.12666-.4324-.27211-.85358-.43258-1.26364-.01174-.00309-.02355-.00676-.03529-.00997.01192.00321.02383.00687.03575.00997-.12672-.31909-.25905-.63348-.40456-.94054h-.0004c-.04325-.09006-.09269-.1753-.13674-.26512-.00006,0-.00017-.00011-.00023-.00011l-.00017-.00034c.00006,0,.00011.00011.00017.00011-.07407-.14723-.15107-.29274-.22892-.43802h.00023c-.00848-.01604-.01604-.03094-.0244-.04698-.00011,0-.00029-.00011-.0004-.00023-.03643-.06554-.06743-.13382-.10386-.19833-.06004-.1061-.1258-.20749-.18584-.31164-.092-.15296-.18584-.30316-.28071-.45245-.00367-.00367-.00653-.00836-.00745-.01123-.02349-.03517-.04491-.07127-.06697-.10701-.00791-.01283-.01535-.02566-.02377-.03827-.00011-.00011-.00017-.00023-.00029-.00023h-.00011c-.05717-.08799-.11807-.17335-.17707-.25859-.00029-.00011-.00052-.00011-.0008-.00023-.00011-.00011-.00011-.00023-.00023-.00034.00034,0,.00069.00023.00103.00023-.12643-.18275-.26341-.35804-.39683-.53575-.08673-.11561-.16745-.23534-.25762-.34854-.00034,0-.00063-.00011-.00097-.00023-.48889-.61446-1.02349-1.19524-1.5986-1.74863-.00011,0-.00017-.00011-.00029-.00011-.31892-.30672-.65101-.60507-.99342-.89402-.00052-.00011-.00097-.00023-.00149-.00046-1.84402-1.55477-4.01829-2.86287-6.39898-3.98902-.00034,0-.00069-.00023-.00103-.00023-.00063-.00023-.00126-.00046-.00189-.0008.00069.00011.00143.00034.00212.00057-3.04785-1.4418-6.42905-2.58457-9.86382-3.58835-.80219-.23453-1.6053-.46827-2.41019-.68871-.00034-.00023-.00069-.00034-.00103-.00046-1.1104-.30408-2.21885-.59693-3.31796-.88325.91064.54217,1.82826,1.05145,2.74726,1.55386-.00034-.00023-.0008-.00034-.00115-.00057-.91848-.50206-1.83571-1.01112-2.74595-1.55294-.31628-.08261-.63354-.1643-.94701-.24588-.04319-.01031-.0845-.02257-.12764-.03288-.00349,0-.00613-.0008-.00871-.00172-.00052-.00034-.00092-.00069-.00143-.00092-.09716-.02498-.19329-.04995-.28964-.07482-.04841-.01249-.09762-.02532-.14591-.03792l-.00052-.00034c-.22245-.05717-.44398-.11538-.66453-.17358.0004.00023.00086.00046.00126.00069-.00063-.00023-.00115-.00023-.00178-.00046h-.00006c-.30597-.07974-.61005-.15949-.91321-.24026h-.00006c-.00791-.00172-.01564-.00378-.02337-.00573-.01272-.00321-.02549-.00642-.03827-.00985.00006.00011.00011.00011.00017.00011-.2024-.05431-.40473-.1077-.60616-.16109-.00023-.00011-.00046-.00023-.00069-.00046-.00189,0-.00378-.00092-.00659-.00183.00046.00023.00092.00057.00137.00092-.00006,0-.00017-.00011-.00029-.00011-.00011-.00011-.00023-.00011-.00034-.00023-.45996-.12294-.90262-.24897-1.35347-.37351-.40978-.1132-.82883-.22468-1.23001-.33948-.00034-.00023-.00063-.00046-.00097-.00069-1.38245-.39608-2.70859-.80431-3.95871-1.23694-.00011,0-.00017,0-.00029-.00011.00006,0,.00006.00011.00011.00011-.65416-.22663-1.27865-.46288-1.88727-.70417-1.0676-.42404-2.06818-.87076-2.96484-1.35564.00298.00195.00607.00367.00905.00561-.00206-.00103-.00453-.00218-.00659-.00332-.00103-.00069-.00212-.00126-.00315-.00195-.79967-.43275-1.52241-.8954-2.15973-1.39013-.00086-.00046-.0016-.00103-.00246-.0016-.0012-.00092-.00223-.00195-.00344-.00286.00195.00126.00384.00264.00579.0039-.20469-.15891-.3982-.3223-.58358-.48889-.01043-.0094-.02251-.0181-.03288-.0275-.18194-.16487-.35255-.33433-.5153-.50688-.01117-.01192-.02435-.02303-.03546-.03495-.34521-.36996-.64626-.75791-.90153-1.16511-.03987-.0637-.08708-.1242-.1246-.18882-.11125-.07539-.21975-.15536-.33083-.23098-.78988-.53758-1.5691-1.09235-2.35135-1.64231.89236.62718,1.78008,1.26181,2.68218,1.87283-.47777-.82127-.76123-1.72503-.82316-2.72366-.00842-.13611-.01782-.27292-.01782-.4127,0-.18584.01031-.36881.0291-.54996-.34601-.2704-.68481-.55076-1.02905-.82367.34418.2728.68298.55316,1.02893.82345.03191-.3247.09195-.64185.18017-.9544.00006,0,.00011,0,.00017.00011.0605-.21574.14247-.4261.22926-.63531.01552-.03758.02481-.07631.04102-.11354.00006.00011.00017.00011.00023.00023.0122-.02727.0216-.05534.03472-.08261.03323-.07493.07207-.14814.10976-.22205.00475-.0094.00917-.01856.01392-.02796.00327-.00653.00687-.01306.00974-.01948l.00137-.00275c.00011.00023.00023.00023.00034.00046.0291-.05637.05631-.11274.08731-.169.00527-.00951.01117-.01868.01656-.02807.0358-.06267.07338-.12557.11091-.18676.02039-.03414.04211-.06794.0629-.10186.02349-.03792.04606-.07573.07081-.11331-.00017-.00023-.00034-.00046-.00052-.00057l.00006-.00011c.00006,0,.00017.00023.00023.00023.01518-.0236.03099-.04652.04663-.06966.01226-.0181.02435-.03632.03666-.05442-.00006-.00011-.00011-.00011-.00017-.00011l.00017-.00034q.00006.00011.00011.00011c.03747-.05431.07871-.1077.11807-.16212q.00006.00011.00011.00011c.00006,0,.00006-.00011.00011-.00023.00006.00011.00017.00023.00023.00023.11824-.16247.24404-.32195.37918-.47869-1.96449-1.67347-3.85852-3.45499-5.67475-5.3387-.00006,0-.00011.00011-.00017.00023-.00006-.00011-.00011-.00023-.00017-.00023-.10512.10128-.20463.20371-.30689.30591-.0047.00573-.01031.01123-.01593.01604h-.00006c-.01054.01111-.02068.02131-.03105.03162-.00636.00642-.01266.0126-.01902.01902.00006,0,.00011.00011.00017.00023-.01421.01421-.0291.0291-.04382.04377-.0067.00665-.01363.01306-.02005.01971-.00011,0-.00017-.00011-.00029-.00023-.08731.09006-.17455.18114-.26094.27223.00017.00011.00029.00023.00046.00046-.00069.00069-.0012.00137-.00189.00206-.0189.02017-.03718.04262-.0562.06256h-.00006c-.00579.00676-.01129.01329-.01679.01971-.00521.00596-.01043.01169-.01587.01764.00011.00023.00029.00023.0004.00046-.00011.00023-.00023.00023-.0004.00046-.00011-.00011-.00017-.00023-.00029-.00034-.01552.01684-.03099.03449-.04652.0519-.00596.00665-.01209.01341-.01816.01994-.06892.07676-.13737.15422-.20623.23121-.03981.04468-.08112.08845-.11927.13336-.08914.10793-.17364.21677-.25997.3247.91236.87351,1.83617,1.73397,2.76697,2.58571-.00126-.00115-.00258-.00229-.00384-.00344-.92954-.85083-1.85215-1.70991-2.76336-2.58239-.13875.1745-.27257.35071-.40216.52922-.01679.02314-.03546.04537-.05202.0684-.00006-.00011-.00011-.00011-.00017-.00011-.25246.35381-.4862.71426-.70016,1.08215.00023.00011.00046.00034.00069.00057l-.00006.00011c-.00017-.00011-.0004-.00034-.00057-.00046-.13233.22903-.25716.46002-.3754.69363.70498.60495,1.42284,1.19352,2.1367,1.78736.20984.1745.41745.35209.62804.52555-.92679-.76387-1.85227-1.52968-2.76479-2.31234-.35564.70944-.64093,1.44318-.85112,2.20051-.00006,0-.00023-.00011-.00029-.00023-.07791.28254-.14545.56783-.20274.85518.00011,0,.00017.00011.00029.00023-.00006.00011-.00006.00023-.00011.00046l-.00006-.00011c-.14826.75092-.23184,1.5196-.23184,2.3081,0,.54709.0338,1.07081.0845,1.58525h.00017c.00006.00023,0,.00034.00006.00046-.00006,0-.00017,0-.00023-.00011.03569.3726.0845.73683.14454,1.09338.00006,0,.00006.00011.00011.00011v.00011c.00017.00011.0004.00023.00057.00046.46282,2.70304,1.62844,4.95545,3.30942,6.86163.0004.00023.00074.00046.00115.00069.00011,0,.00017,0,.00029.00023-.00034-.00023-.00069-.00046-.00103-.00057.72084.81565,1.53083,1.57207,2.42439,2.2696,1.24588.65078,2.49898,1.28461,3.75706,1.9056-1.25734-.62283-2.51118-1.25459-3.75724-1.90537,3.30948,2.58686,7.70209,4.4228,12.40817,5.93953-2.7951-1.22067-5.56648-2.51479-8.31449-3.8694,1.22509.60186,2.45447,1.19295,3.68889,1.76994,1.5357.71815,3.07615,1.42278,4.62571,2.09946.4886.15743.99107.29881,1.48557.45005,1.93986.59327,3.90767,1.15365,5.874,1.6839-.00137-.00057-.00281-.00115-.00418-.00172.00057.00011.0012.00046.00178.00046.00069.00034.00132.00057.00201.00092.50121.1352,1.00241.27028,1.5027.40445,5.8972,1.57975,11.54187,3.10496,15.51027,5.36689.0004.00011.00074.00023.00115.00023l.00206.00137c-.00132-.00034-.00258-.00069-.0039-.00115.81096.46277,1.54962.95647,2.20659,1.48672.44736.12214.89483.22525,1.34224.34372-.44736-.11836-.89483-.22159-1.34212-.34349,1.2924,1.04091,2.26387,2.22732,2.83079,3.60978,1.1753.22869,2.34975.43653,3.52396.64024-.00052-.00011-.00103-.00011-.00155-.00023-1.17358-.2044-2.3474-.41132-3.52242-.63978.00006,0,.00006.00023.00011.00034-.00006,0-.00017-.00011-.00023-.00011.03185.07745.05104.16052.0806.23889.08782.2335.17633.46643.23952.71162.00023,0,.00052,0,.00074.00011,0,.00011.00006.00011.00006.00023.03162.00607.06325.01111.09487.01707.00561.00115.01123.00206.01684.00309-.03735-.00699-.07459-.01295-.11194-.02017.16144.6242.24782,1.28312.24782,1.98511,0,.76295-.12105,1.50058-.33977,2.21392-.00017,0-.00034-.00011-.00052-.00011-.07711.24851-.171.4921-.27188.73385-.0208.04973-.03397.10151-.05603.15078h.00034c-.90754,2.03186-2.71226,3.80455-5.20586,5.21531-.00017,0-.00034-.00011-.00052-.00011h-.00034c-.05958.03391-.12821.06279-.18859.09624-.43744.24164-.88807.47651-1.36641.69501.00069.00011.00137.00023.00206.00023l-.00137.00069c.38789.04583.77447.07447,1.16213.11755-.38783-.04319-.77435-.07172-1.16236-.11755-3.78353,1.73076-8.79089,2.7389-14.51256,2.7389-11.47244,0-22.35631-5.35555-29.12548-13.24731v8.53464c1.35822.49897,2.73025.97434,4.10881,1.43825-1.37867-.46391-2.75081-.93928-4.10921-1.43825v1.08307c.00029.00023.00057.00023.00086.00034v.14287c7.56786,6.45099,18.24533,10.67099,29.12548,10.67099,4.60715,0,8.87653-.55294,12.67467-1.55695.0004.00011.00074.00011.00115.00011.90949-.24118,1.79274-.50688,2.64495-.79973h-.00046c4.53147-1.55053,8.24167-3.8041,10.83312-6.58504-1.99858-.1014-4.00225-.24084-6.00931-.41224,1.8726.15823,3.74205.28563,5.60744.38417.13359.0071.26799.02028.40153.02715l.00006-.00011c.00017,0,.00034.00011.00052.00011.2787-.2995.54234-.60621.7948-.91774h.00069c1.27928-1.57677,2.22154-3.30192,2.77161-5.14805h.00052c.08822-.29743.16705-.59785.23556-.90101.22056-.97801.3341-1.98706.3341-3.02327,0-.21872-.01501-.42897-.02154-.64391ZM97.11777,32.33814c-.32911-.15651-.65777-.3137-.98626-.47216.32837.15846.6572.31565.98626.47216ZM106.61793,36.54485c-.41086-.169-.82241-.33387-1.23265-.50596.41023.17198.82184.33696,1.23265.50596ZM111.03654,38.29933c-.50522-.19306-1.00957-.38932-1.51398-.58708.50436.19764,1.00888.39425,1.51398.58708ZM115.21243,39.84299c-.40806-.14482-.81491-.29858-1.22262-.44638.40766.1478.81457.30179,1.22262.44638ZM120.71154,41.6858c-.5326-.1698-1.0652-.33616-1.59745-.51135.5322.17518,1.06497.34155,1.59745.51135ZM125.02612,43.00363c-.58782-.17083-1.17507-.3467-1.76261-.52429.58748.17748,1.17496.35358,1.76261.52429ZM100.49319,33.90254c.28707.12993.57299.26421.86045.39253-.28752-.12832-.57333-.2626-.86045-.39253Z" style="fill:#fff;"/><path d="M84.19505,11.4729c-.45641-.32894-.89305-.68458-1.34149-1.02441.4485.33983.88514.69535,1.34161,1.02418l.00006-.00011c.00011.00023.00023.00023.00034.00034.09017-.07768.18739-.15296.28237-.22903.06198-.0495.1207-.10037.18441-.14929.00006.00011.00017.00011.00023.00011.74055-.56783,1.60593-1.08502,2.58021-1.54297.15187-.07207.30992-.14058.46764-.2091.05184-.02246.1014-.0464.15382-.06874l.00006.00011c1.60776-.68515,3.48025-1.22102,5.55897-1.57872.00006,0,.00011.00011.00017.00011.32757-.05626.65983-.10701.99771-.1549-.00006,0-.00006-.00011-.00011-.00011,1.65377-.23087,3.42388-.35656,5.28795-.35656,7.29088,0,14.54332,2.31807,20.32875,5.83023h-.00017c.29377.17839.5857.35862.87191.54354.17169.00458.34286.00401.51444.00802-.17169-.0039-.34281-.00321-.51478-.00779,1.45761.93951,2.81669,1.95315,4.04344,3.02786v-3.01846c-.15164.00344-.30368.00275-.45538.00561.15135-.00286.30356-.00241.4548-.00584v-.51513h.00046v-4.0557c-.40135-.00309-.80448-.0157-1.20687-.02452.40227.00871.80517.02131,1.20641.02429v-.00023h.00034v-.48809c-.00825,0-.01661-.00046-.02486-.00046-.00768-.00011-.01541-.00069-.02309-.00069.01598,0,.03202.0008.04795.00092v-.75734c-1.56749-1.08044-3.23443-2.05558-4.97172-2.93035-.01014-.00115-.02028-.00298-.03042-.00412.01025.00115.02051.00298.03076.00412-.0004-.00023-.00086-.00046-.00126-.00069.00052,0,.00109.00023.0016.00023-.43653-.21861-.87477-.42988-1.31783-.63543-.00097-.00011-.00189-.00023-.00286-.00046C113.24032,1.6792,107.16508.20314,100.98013.02475c-.00034-.00023-.00069-.00023-.00103-.00046-.42329-.01214-.84659-.02429-1.26988-.02429-.0751,0-.1474.00275-.2225.00275.00011,0,.00023,0,.00034.00011-3.06068.01318-5.94767.30511-8.61129.83536,5.34157,2.51078,11.07916,4.46485,17.07868,5.7695.42805.09303.85593.17564,1.28386.26169-.42794-.08593-.85581-.16854-1.28386-.26146-5.99951-1.30466-11.73711-3.25884-17.07868-5.7695-.08536.01696-.16934.03563-.2543.05305-.18687.03792-.3742.0755-.55878.11606.00023.00023.00052.00023.00074.00046h-.00063c-.00023,0-.00046-.00011-.00069-.00023-1.93608.42897-3.74727.98626-5.40665,1.66201h-.00017c-.00011.00011-.00029.00023-.0004.00023h.00006c-.20257.08261-.39952.17072-.59739.25504.00006,0,.00006.00011.00011.00011-.00011.00011-.00017.00011-.00029.00011h-.00006c-1.18246.51432-2.28977,1.08399-3.3026,1.71472h-.00017c-.00006,0-.00011,0-.00011.00011h0c-.08014.04961-.15679.10186-.23465.15319-.08782.05775-.1769.1148-.26484.17243-.59029.39035-1.14872.79961-1.67238,1.22847-.00006-.00011-.00017-.00011-.00023-.00023-.10415.08559-.20595.17312-.30809.2602-.04772.04056-.0967.0802-.14391.12122.00006,0,.00011,0,.00017.00011-.00017.00011-.0004.00034-.00057.00046.43527.39196.89156.7586,1.33588,1.1399-.44432-.38107-.90067-.74794-1.33594-1.13956-.19523.17072-.38858.34349-.5735.51994,1.81617,1.88372,3.71026,3.66523,5.67475,5.3387.28626-.33318.60724-.65514.96391-.96208ZM112.16968,3.57861c-.44902-.09177-.89706-.20188-1.34585-.30087.44867.09888.89689.20921,1.34585.30087ZM116.08457,4.29046c-.39603-.06267-.79205-.14402-1.18819-.21231.39608.06806.79217.14986,1.18819.21231ZM106.86357,2.30821c.46294.12443.92513.25779,1.38876.37443-.46368-.11687-.9257-.24977-1.38876-.37443Z" style="fill:#fff;"/><path d="M48.5539,7.12446c1.13755.91797,2.28639,1.82379,3.44651,2.71449-1.08783-.96953-2.23758-1.8781-3.44651-2.71449Z" style="fill:#fff;"/><path d="M63.30128,34.5618c0-.00596-.00034-.01192-.00069-.01787v-.00791c-.00011-.00011-.00017-.00011-.00029-.00011-.00281-2.88613-.38766-5.6885-1.10656-8.36324-.00023-.00023-.00046-.00034-.00069-.00046l-.00017-.00069c.00034.00023.00074.00046.00109.00069-.0841-.31153-.17982-.61847-.27429-.92565-.03414-.11125-.06439-.22422-.09905-.33524-1.28965-4.11952-3.38269-7.91147-6.10836-11.21625-.00057-.00034-.00115-.0008-.00172-.00115-.00029-.00046-.00057-.00069-.00086-.00103.00092.00057.00172.00126.00264.00195-.83931-1.01879-1.75768-1.97331-2.71243-2.89403-.3329-.32115-.65365-.6533-.99995-.96197-1.16012-.89082-2.30804-1.79549-3.44651-2.71438-.18212-.12672-.36704-.24782-.5519-.37168-.0413-.02727-.08261-.05637-.12391-.08456-.09951-.0637-.19615-.13417-.29658-.19798-.00011,0-.00017.00023-.00029.00023-.04503-.0291-.08908-.06095-.13417-.09006-.00011.00011-.00023.00023-.00034.00023-.01868-.01283-.03821-.02234-.05689-.03529-.00361-.00229-.00745-.00435-.01106-.00665-.15238-.0967-.30975-.18607-.46282-.28139-.00011,0-.00029.00023-.0004.00023-.12494-.07654-.25075-.1517-.37592-.22754-.09109-.05545-.18143-.11182-.27309-.16602-.16144-.09475-.32287-.1887-.48528-.28151-.43269-.24404-.86727-.48259-1.3093-.70967-.00017-.00011-.0004-.00023-.00057-.00023.00017-.00023.00029-.00046.00046-.00069-.17455-.08914-.35386-.1698-.52939-.25619-.00006.00023-.00011.00023-.00017.00023-.03283-.01581-.06731-.03265-.10002-.04858.0004.00046.00086.0008.00126.00115-.00034-.00023-.00063-.00034-.00097-.00046-.00006-.00011-.00017-.00023-.00023-.00023-.69174-.33799-1.39471-.65892-2.11275-.95463-.00006.00023-.00011.00023-.00017.00034-.18762-.0778-.37529-.15765-.56474-.23178-1.13669,1.66224-2.20384,3.37421-3.19685,5.13041h.00006c-.00011.00023-.00017.00046-.00029.00069-.00006-.00011,0-.00011-.00006-.00023.00017-.00023.00023-.00046.0004-.00069.99296-1.757,2.05913-3.46794,3.19668-5.13018-1.04371-.41109-2.11092-.77807-3.20155-1.09716h-.00006c-.20452-.05981-.41464-.11068-.62099-.16682-.00006,0-.00011.00023-.00017.00023-1.38022-.37626-2.79051-.68114-4.2326-.89975q.00006-.00011.00011-.00034c-.22525-.0346-.45051-.0637-.67673-.09475-.00011.00034-.00029.00057-.0004.00092-.10661.25126-.20652.5063-.31084.75883.10432-.25252.20417-.50779.31078-.75894-1.02011-.13703-2.05346-.23751-3.09987-.2901-.00017,0-.00029-.00023-.00046-.00034-.27555-.01341-.55351-.01638-.83072-.02246-.18658-.00412-.37185-.01283-.55872-.01547.00011.00011.00034.00023.00046.00046h-.00011c.7559.73121,1.53885,1.45234,2.31761,2.17508.34974.32459.68739.65376,1.04102.97698l-.00011.00023q-.00006-.00011-.00011-.00011c-.11669.30889-.22462.62237-.33754.93332.11286-.31095.22067-.62466.33742-.93367-1.14133-1.04182-2.2629-2.09213-3.35829-3.15182-.18865-.00275-.37449-.01398-.56313-.01398h-.19392c.00006-.00023.00011-.00046.00017-.00057h-.72835c-.00006.00011-.00011.00034-.00017.00057h-5.99017c-.11217.51432-.21001,1.03392-.3133,1.55145.10312-.51776.20062-1.03724.31279-1.55179h-.74525v.00011h-2.26279c-.00006-.00011-.00011-.00023-.00017-.00023h-1.32998c.96672,1.07184,1.96352,2.12879,2.97532,3.17806.06754-.39322.13892-.78644.21305-1.17782,0,0,.00006,0,.00006.00011-.07413.39127-.14551.7846-.21305,1.17782.00006.00011.00017.00011.00023.00023-.10581.61286-.18108,1.23614-.27349,1.85347.09218-.61756.16716-1.24084.27309-1.85335-1.01181-1.05019-2.0086-2.10714-2.97532-3.17806h-2.98483c0-.00023.00006-.00046.00006-.00057h-.76822v-.00011h-5.06275l.00006.00011h-1.28174c.01787.02418.03729.04732.05517.07149.47732.64345.98041,1.27418,1.47297,1.91007-.511-.65949-1.03335-1.31325-1.52808-1.98088h-.75098c0-.00023.00006-.00046.00006-.00069h-.79778c0,.00023-.00006.00046-.00006.00069h-.00069v-.00034H.00023v.0291c-.00006-.00011-.00017-.00023-.00023-.00034v2.09591c.00011.00023.00029.00046.0004.00069v5.94652c.2457.43687.51043.86343.76186,1.29732-.25161-.43401-.51633-.86068-.76226-1.29767v2.26307c.00017.00023.00034.00046.00052.0008v17.58842c-.00017-.00069-.00034-.00137-.00052-.00195v3.11149c.00017.00069.0004.00126.00057.00195v17.92916c-.00017-.00046-.0004-.00092-.00057-.00126v1.86493l.00069.00137v12.97852c-.00023-.00023-.00046-.00069-.00069-.00092v1.56829c.00011.00023.00029.00046.0004.00069v2.5848h1.82305c.00006.00023.00017.00023.00023.00046h1.0766c-.00011-.00023-.00023-.00034-.00034-.00046h7.54162c.00011.00011.00017.00023.00029.00046h1.0259c-.00011-.00023-.00023-.00034-.00034-.00046h6.0961c-.17994-.27017-.34928-.5448-.52733-.81577.17822.27108.34756.54583.52773.81623h5.53932c-1.44077-2.371-2.80827-4.76721-4.10451-7.18496h-5.94114c-.00011-.00023-.00017-.00034-.00029-.00046h-4.51365v-8.25405c-.42106-.83353-.8329-1.66946-1.23528-2.50757-.34705-.72285-.68372-1.4481-1.01662-2.17405.07934.17301.16212.34521.24232.51811.25607.55248.50991,1.10541.77429,1.65594.40233.838.81417,1.67382,1.23523,2.50723v-.00103l.00046.00092v-1.82185c-.00017-.00023-.00029-.00057-.00046-.00092v-15.03914c-.74823-2.52052-1.38469-5.04459-1.94667-7.56775.56222,2.52338,1.19885,5.04746,1.94708,7.56763v-.00092s.00006.00011.00006.00023v-2.89552c0-.00011-.00006-.00023-.00006-.00023v-.00011c-.00011-.00057-.00029-.00103-.0004-.0016v-9.719c.00011.00023.00029.00034.0004.00046v-.00069l.00006.00011v-1.84247h-.00006v-.00023c-.00011-.00023-.00023-.00034-.00034-.00046v-6.9691c-.51616-.64425-1.02-1.29331-1.5204-1.94341.50035.64987,1.00419,1.2987,1.52034,1.94295v-1.72136l-.00052-.00069v-5.32209h3.14713c0-.00011.00006-.00034.00006-.00057h.10512c.00006.00023.00017.00023.00023.00034h.65794v-.00046h.00029v.00046h.68894c-.04044-.04617-.07963-.09303-.11967-.13944-.07298-.08433-.14551-.16934-.21775-.25413.112.13153.22308.26329.33782.39368h5.36924l-.00006.00023h4.60382c-.77172-.73855-1.51152-1.49199-2.25763-2.24256.23774.23912.47949.47629.71958.71437.51324.50894,1.01232,1.0251,1.5381,1.52785h1.41728c-.00017-.00011-.00029-.00034-.00046-.00046h.00011c.00017.00011.00029.00034.00046.00046h2.84551c.84098,0,1.67164.04319,2.49291.11538.10163-.3231.21208-.64185.31766-.96311-.10552.32138-.21609.64013-.31754.96357h.00046v.00011c.22434.01971.4477.04319.67015.06852,0-.00011.00006-.00011.00006-.00011h.0004c1.21741.13703,2.41127.34819,3.5742.63726.00011-.00023.00017-.00046.00029-.00069.16613.04159.32963.08811.49387.13371.0397.01111.0794.02143.11916.03231v-.00011c.86332.23556,1.70888.51054,2.53559.82402.00011-.00023.00017-.00034.00029-.00046.00017,0,.00029,0,.00046.00023-.00006.00011-.00017.00023-.00023.00046.10988.04148.21935.08444.32917.12672.07854.03048.15754.05992.23539.0912l.00017-.00034c.00011.00011.00017.00011.00029.00011.04875-.08994.09934-.17805.14809-.26799.00006.00011.00011.00011.00017.00011-.04881.08914-.09945.17828-.14826.26833.3471.1407.69054.29079,1.03105.44478h.00017c.07161.03265.14213.06599.21345.09853.11549.0527.23155.10449.34533.16017.1262.06072.24937.12374.37323.1863.04846.02463.09756.04858.1462.07321q.00006-.00011.00011-.00011h.00029c-.00006.00023-.00011.00023-.00017.00034.25252.12855.50499.25905.75373.39517.00006-.00011.00011-.00023.00017-.00023.16224.08914.32367.18103.48402.27292.00011,0,.00017-.00023.00029-.00023h.00017c-.00006,0-.00011.00023-.00017.00023.02228.01237.04423.02475.06645.03712.04531.02521.09069.05041.13543.07619.06834.04022.13949.07768.20875.11881-.00006.00011-.00011.00023-.00017.00023.00355.00183.00636.0039.0094.00596.00183.00115.00361.00252.00544.00367.04365.02612.08582.05316.12844.0802.03706.02349.07436.04675.11154.07.00006-.00011.00011-.00011.00017-.00011h.00011c.00011.00011.00029.00023.0004.00023.0055.00344.01094.00687.01644.01031.05242.03254.10484.06599.15725.09899-.00006,0-.00011.00011-.00017.00023.00103.00046.00143.00069.00201.00092.00046.00023.00097.00046.00149.00103,2.41122,1.49806,4.56905,3.35164,6.39181,5.48983.76289.53449,1.53512,1.0542,2.30581,1.57631-.77074-.522-1.54303-1.04171-2.30609-1.57597,2.94811,3.46163,5.01681,7.66262,5.8831,12.274-.00023-.00011-.00046-.00023-.00069-.00046.07602.40078.14362.80443.19902,1.21082.00011.00011.00023.00023.00034.00023.16705,1.1957.26089,2.41568.26089,3.6563,0,1.75803-.17833,3.47481-.50871,5.13797h.00011c-.0668.3349-.14259.66499-.22136.99519h-.00011c-.65611,2.73878-1.73735,5.31716-3.17904,7.6617.00006,0,.00006.00011.00011.00011-.18017.29354-.36967.58066-.56107.86687.00006,0,.00017,0,.00023.00011l-.00006.00011c-.00023-.00023-.0004-.00023-.00063-.00046-1.45853,2.17748-3.23151,4.13545-5.25696,5.81075-.00017-.00011-.0004-.00023-.00057-.00034-.29377.24404-.59413.47961-.89821.71048.00017.00011.00029.00023.00046.00023-1.72967,1.31119-3.62066,2.42405-5.64221,3.30455-.00011,0-.00029,0-.0004.00011-.00006-.00011-.00017-.00034-.00023-.00034-.15112.06565-.29944.13703-.45148.20085v.00011h-.00029c.12133.20417.25155.40582.37592.60908-.12443-.20325-.25464-.40479-.37603-.60885-.89729.37076-1.82081.69272-2.76319.97044,1.10662,2.21518,2.3812,4.37204,3.81727,6.46222,1.09814-.35839,2.17095-.76581,3.21748-1.21919-.13004-.16556-.25241-.33398-.38033-.50035.12792.16636.25029.33456.38039.50023.00435-.00195.00882-.00378.01318-.00573.14895-.06359.30018-.12408.44799-.19065l-.00052-.00069c.00006,0,.00017,0,.00023-.00011-.25831-.3278-.50602-.65926-.75504-.99027.24937.33112.49702.6627.75539.99061,3.1076-1.39758,5.96835-3.20613,8.5072-5.3489.00029.00011.00052.00034.0008.00046.28741-.24301.56846-.49255.84756-.74485.0043-.0039.00871-.00768.013-.01146l.00011-.00023c-.00023-.00011-.0004-.00023-.00063-.00034,2.07242-1.86584,3.9083-3.9637,5.46353-6.25014-.72062-.33925-1.42972-.69466-2.14311-1.04423.71328.34945,1.42233.70463,2.14283,1.04377.00011-.00023.00017-.00034.00029-.00046.00017,0,.00034.00023.00052.00023.19426-.28529.3895-.56966.57533-.86068-.00034-.00023-.00063-.00023-.00097-.00046.00006-.00011.00011-.00023.00017-.00023-.19919-.09372-.39373-.19397-.59241-.2885.19884.09452.39351.19489.59286.2885,1.49605-2.35015,2.69737-4.88705,3.56194-7.56294.00006,0,.00006.00011.00011.00011.10134-.31348.19334-.63268.28535-.94982-.00006,0-.00006-.00011-.00011-.00011.73568-2.5463,1.16465-5.20981,1.25006-7.95604-.00011-.00011-.00017-.00011-.00029-.00011.00338-.1022.00453-.20463.00819-.30637.00888-.23694.01971-.47331.01971-.71219ZM.49118,30.33492c-.02051-.07424-.03924-.14826-.05958-.22239.03672.13417.07046.26765.10776.40204-.01673-.06004-.03162-.11962-.04818-.17965ZM5.51435,17.52781c0,.00023.00006.00046.00006.00046-.00011-.00011-.00023-.00023-.00034-.00046-.00006-.00011,0-.00023-.00006-.00046.00011.00023.00023.00034.00034.00046ZM5.58407,44.78733c-.3919-.92324-.77378-1.84831-1.14156-2.77568.36813.92736.74949,1.85244,1.14156,2.77568ZM4.95912,8.26436c.00195.32917.01163.66304.0177.99462-.00624-.33181-.01575-.66568-.01822-.99542.00017.00023.00034.00057.00052.0008ZM4.57421,16.12542c.00006.00023,0,.00034.00006.00046-.2932-.44249-.56772-.89551-.85495-1.34144.28724.44569.56176.89872.8549,1.34098ZM4.39547,41.89513c-.39247-.99267-.77194-1.98729-1.13641-2.98432.36469.9968.74353,1.99176,1.13641,2.98432ZM4.17641,9.01998c.01959,1.24359.07144,2.50322.14614,3.77396-.07487-1.27086-.12672-2.5306-.14631-3.77419.00006,0,.00011.00011.00017.00023ZM4.17583,9.01826c-.03197-.04503-.06141-.09109-.09326-.13611.03179.04503.06135.09097.09326.136v.00011ZM2.41139,6.44389c-.40869-.61343-.80328-1.23156-1.19891-1.84923.39568.61778.79091,1.23557,1.19891,1.84923ZM2.46764,36.68578c-.10002-.29113-.19741-.5825-.29491-.87409.32287.9646.66167,1.92725,1.01135,2.88853-.24381-.67083-.48539-1.34189-.71643-2.01445ZM6.9864,47.97547c-.23671-.51833-.47348-1.03667-.7028-1.55649-.18051-.40937-.3518-.82035-.52761-1.23064.39918.93126.80746,1.86069,1.23041,2.78713ZM8.28051,23.26855c-.8392-1.10198-1.66975-2.21002-2.47034-3.33789l-.00017-.00103c.80059,1.12798,1.63119,2.23626,2.47051,3.33892ZM11.69701,7.65104h-.00074c-.00006,0,0-.00023-.00006-.00023.02463-.46173.04783-.92221.07917-1.38085-.03139.45864-.05459.91923-.07837,1.38108ZM26.16012,4.13819c.14436-.55099.31525-1.09006.4713-1.63578.01232-.04297.02475-.08582.03712-.12867-.16934.58822-.35266,1.17003-.50842,1.76444ZM36.03545,4.4354c-.07407.14906-.14562.29961-.21878.44913.14975-.30637.29423-.61618.44799-.92026-.07871.15571-.15158.31485-.22921.47113ZM37.50974,9.13524h-.00006c-.00006,0-.00017-.00011-.00023-.00023-.03454.06279-.06846.12489-.10289.18721.03443-.06233.06869-.12466.10277-.18721h.00011c.00006,0,.00017-.00023.00023-.00034l.00006.00011c-.00006.00011-.00011.00023-.00017.00023.00006.00011.00011.00011.00017.00023ZM38.43785,8.70455c-.00006-.00011-.00011-.00011-.00017-.00011.00006,0,0,0,.00006-.00011.00006.00011.00011.00011.00017.00011,0,0-.00006,0-.00006.00011ZM39.85639,9.85202c-.37609-.30179-.75069-.60518-1.12374-.90903-.08284-.06737-.16705-.13428-.24949-.20188.45371.37214.91373.74107,1.37329,1.11068,0,.00011-.00006.00011-.00006.00023ZM44.36151,4.80353c.14912.12672.29961.25126.44965.37661.12781.10701.25527.21448.38325.32127-.27807-.2319-.55677-.46299-.83301-.69776q.00006,0,.00011-.00011ZM41.6245,11.26151c-.00011,0-.00006,0-.00017-.00011.00006,0,0-.00011.00006-.00011.00006.00011.00011.00011.00017.00023h-.00006ZM41.43334,11.10913c-.00006,0-.00011,0-.00017-.00011-.00011.00011-.00017.00023-.00029.00034-.00006,0-.00011,0-.00017-.00011.00006-.00011.00011-.00011.00017-.00023-.14454-.11354-.28535-.22903-.42988-.34258,0,.00011-.00006.00011-.00006.00011-.00017-.00011-.00034-.00023-.00052-.00046-.1643-.12981-.32711-.26043-.49026-.39081-.068-.05442-.13623-.10862-.20429-.16292.00006-.00011.00011-.00011.00017-.00011.23167.18469.46236.37042.69495.5542,1.37592-1.74371,2.86063-3.42852,4.45052-5.04746.00006.00011.00011.00011.00017.00011-1.58983,1.61905-3.07454,3.30364-4.45041,5.04734.14454.11354.28437.22903.42988.34258.30586-.38829.63738-.76249.95412-1.14494-.31674.38245-.64809.75665-.95395,1.14506ZM45.87177,6.06877l-.00567-.00481c.00195.0016.00384.00321.00579.00481-.00006.00011-.00017.00023-.00023.00023.13061.10862.25997.21746.38978.32619.01942.01627.03884.03265.05826.04892-.14946-.12466-.29789-.25023-.44799-.37489-.36142.36824-.69764.75184-1.04813,1.12695.35048-.37523.6867-.75894,1.04818-1.12741ZM45.098,9.04977c.24507-.20979.50321-.40697.7535-.6116.21265-.17392.42375-.34922.64018-.51937-.47107.37076-.94043.74301-1.39368,1.13096ZM46.32589,7.26802c-.00092.0008-.00172.00137-.00264.00218.07029-.06393.14305-.12534.21546-.18721.02887-.02475.05723-.05007.08616-.0747-.10048.08582-.20136.17117-.29898.25974ZM46.82463,6.86736c-.00006,0-.00006-.00011-.00011-.00011-.00006.00011-.00017.00011-.00023.00023-.00006-.00011-.00011-.00011-.00017-.00011.00006-.00011.00017-.00023.00023-.00023.0861-.06806.17324-.13508.25957-.2028-.08622.06771-.17329.13497-.25928.20303ZM40.98678,62.87231c-.12277-.17312-.2492-.34498-.36967-.51879.21064.30385.4308.60461.64815.90628-.09218-.12935-.18658-.25802-.27847-.38749ZM49.80425,57.85235c-.26959-.15284-.54302-.30076-.81136-.45543.97932.56382,1.96529,1.11916,2.96094,1.66156-.72216-.39482-1.43533-.8011-2.14959-1.20612ZM58.58729,33.16926c-1.03421-.55328-2.04676-1.12374-3.06045-1.69341.50172.28185,1.00883.55935,1.51513.83777.5165.28414,1.02338.57619,1.54566.85518.92897.49599,1.8679.96517,2.80369,1.44295.28277.14459.56399.2932.84728.43618-1.22096-.61607-2.44175-1.23374-3.65131-1.87867Z" style="fill:#fff;"/><path d="M34.76809,60.36141c-.00006-.00023-.00017-.00034-.00023-.00046-.63073.17369-1.26805.33135-1.91568.4599.88698,2.27797,1.9504,4.52305,3.18654,6.72024.8616-.20165,1.70916-.4363,2.54544-.69547-1.11842-1.63303-2.13515-3.30868-3.05438-5.01962.91923,1.71071,1.93602,3.38682,3.05444,5.01916.16894-.05248.33794-.10701.5059-.16144-1.43602-2.09018-2.71066-4.24807-3.81722-6.46314-.16705.04973-.33593.09475-.50481.14081Z" style="fill:#fff;"/><path d="M32.30973,60.91607l-.00011-.00023c-.2626.04686-.52332.0975-.78776.13692-.00006-.00023-.00011-.00046-.00017-.00057-.02629.00401-.05282.00653-.07923.00997-.12391.01638-.24886.02956-.37288.04652,0,.00023.00011.00023.00011.00046-.00286.00023-.00567.00069-.00854.00103-.00458.00034-.00894.00057-.01438.00115-.00968.00149-.01948.00264-.0295.0039-.00951.00115-.01925.00229-.02841.00367,0-.00011-.00006-.00011-.00006-.00023-.0122.00195-.0244.00286-.03661.0047,0,0,.00006.00011.00006.00023h-.00029c-.13044.01593-.26089.03368-.39139.04789l-.07768.01066c-.00143.00011-.00292.00034-.00435.00057-.01489.00092-.03071.00367-.0456.0047-.02332.00309-.04663.00619-.07.00928-.0047.00057-.00922.00126-.01398.00172,0-.00011-.00006-.00011-.00006-.00023-.15296.01593-.305.03002-.45801.04319-.13778.01226-.27647.02062-.41419.03094-.00006-.00011-.00011-.00023-.00017-.00046-.23562.01787-.47027.04125-.70773.05156q.00006.00023.00011.00034h-.00011q.00006.00011.00011.00034c-.42857.02154-.86097.03002-1.29417.03185-.00006-.00023-.00017-.00046-.00023-.00057-.03288,0-.06382.00286-.09573.00286h-3.05123c.56176,1.18481,1.1419,2.36458,1.73855,3.53943-.5967-1.17484-1.17702-2.35473-1.73872-3.53943h-5.32839c1.29618,2.41775,2.66374,4.81395,4.10445,7.18496h4.27603c.14998,0,.29732-.00665.44558-.01134.0495-.0016.09905-.00286.14877-.00378-.64345-1.18309-1.26931-2.37283-1.87719-3.5683.6077,1.19524,1.23351,2.38475,1.87736,3.5683.62134-.0094,1.23706-.03368,1.84997-.0731h.00017c.25344-.01512.50688-.033.75842-.05362-.00011-.00023-.00029-.00046-.0004-.0008h.00017l.00023.00046c.27125-.02257.54154-.04686.81187-.07505-.00006-.00011-.00006-.00023-.00011-.00034.23528-.0244.4697-.05534.70406-.08536.00006.00011.00006.00023.00011.00023.01782-.00183.03563-.00367.05351-.00561v-.00011c.03684-.00504.07384-.00917.11091-.01352.03764-.00435.0751-.00894.11291-.01318.0075-.00195.0169-.00286.02532-.00286.06101-.00848.123-.01398.18401-.02246.07974-.01123.16144-.01787.24118-.0291.01014-.00149.02057-.00355.03076-.00527.05419-.00871.10799-.01879.16315-.02681-.00006,0-.00006-.00011-.00011-.00023.03145-.00435.06227-.00997.09326-.01547.02165-.00367.04325-.00733.06491-.01043-.00006-.00011-.00006-.00023-.00011-.00034.00017,0,.00034-.00011.00052-.00011-.17129-.46861-.32488-.94478-.48528-1.41797-.07121-.21036-.14631-.41888-.21534-.62993.22462.68641.45354,1.371.70091,2.0479.11154-.01764.22296-.03827.3345-.05706.00006.00023.00011.00023.00017.00046.19054-.03094.38107-.06198.57064-.0967-.28065-.62603-.54709-1.25791-.80488-1.89334.25647.63577.52441,1.26708.80506,1.89288.47302-.08456.94232-.17919,1.40789-.28162-.96466-1.7232-1.82127-3.4763-2.57368-5.25117.75281,1.77476,1.60954,3.52751,2.57426,5.25163.18206-.03941.36509-.07699.54532-.11916-1.23614-2.19731-2.29956-4.44147-3.18654-6.72047-.17908.03575-.36194.06302-.54199.09567ZM20.37452,62.2606c.99164,1.80936,2.02441,3.60588,3.09734,5.38877-1.07345-1.78289-2.10622-3.57942-3.09734-5.38877ZM31.04792,61.35294c.00017.00057.00023.00115.0004.0016-.01787-.07127-.03643-.14242-.05396-.2138.01742.07081.03586.14138.05356.21219ZM31.02042,61.34251c.04153.13371.08289.2673.12477.4009.00074.00309.00155.00619.00229.00928-.04222-.13669-.08461-.27349-.12706-.41018ZM33.26826,66.01978c-.19879-.49095-.39396-.98328-.57877-1.4795-.0523-.14058-.09876-.28323-.14992-.42415.23207.63875.47491,1.27326.72869,1.90365Z" style="fill:#fff;"/><path d="M141.35903,53.82128h-.00034v.91614h.00034v4.57564h-.00034v.96472h.00034v6.29895c-.00011,0-.00023.00011-.00034.00011v1.00711c.00011,0,.00023-.00011.00034-.00011v.95887h7.37824v-13.83473c-1.4276.03563-2.85897.05912-4.29688.05912-.70034,0-1.40428-.01111-2.10754-.02051.4186.00538.83691.0094,1.2547.0118.09521.00057.19077.00241.28598.00275.18865.0008.3785.0055.56686.0055,1.43791,0,2.86928-.02349,4.29688-.05912v-3.49349c-2.44685-.08352-4.90687-.22056-7.37824-.41201v3.01926Z" style="fill:#fff;"/><path d="M199.99908,33.24878v-.00023c.00029-.00023.00052-.00046.0008-.00069v-.09578c-.00011-.00011-.00023-.00034-.00034-.00046v-.98144c-.00017.00023-.00029.00023-.00046.00046v-.00046l.00034-.00034v-10.84664c.00011-.00023.00023-.00046.00034-.00057v-.98557c-.00006-.00011-.00017-.00011-.00023-.00034V7.16536c-.00017-.00011-.00029-.00034-.00046-.00057v-.00046c.00023.00023.00046.00046.00069.0008v-1.43504c-.00006-.00011-.00017-.00023-.00023-.00023V.58204h-.09006c-.08009.3121-.18091.61572-.26501.92622.00143-.00516.00286-.01031.0043-.01558.08267-.30534.18183-.60392.2606-.91087h-.00046c.00006,0,.00006-.00023.00011-.00034h-.75c-.00006.00011-.00006.00034-.00011.00034h-.00046c-.14253.55213-.31015,1.09407-.46597,1.64093-.10541.36985-.20463.74267-.31559,1.11023.27469-.91109.54234-1.82563.78134-2.75139h-3.96553c.00361.00367.00693.00745.01054.01111-.00361-.00378-.00699-.00745-.01066-.01123h-1.32058c.00017.00011.0004.00034.00057.00057h-.00011c.1077.10873.21105.21907.31829.32803-.10736-.10896-.21076-.21952-.31863-.32837h-.97348c0-.00011.00006-.00011.00006-.00023h-.27784v.00034h-.00057v.76513c-.00006.00023-.00017.00046-.00023.00069v8.4974q-.00006-.00011-.00011-.00011v1.35908c.00011.00011.00023.00023.00034.00046v5.63935c.42003-.73018.80483-1.49428,1.19822-2.25001-.20171.38772-.40571.77372-.61452,1.15479-.01988.03632-.03861.07379-.05855.11011-.17891.3247-.3408.66591-.52481.9858v1.41064c.00006-.00011.00017-.00023.00023-.00046v.00023c-.00006.00011-.00017.00023-.00023.00046v5.30204c.20812.28838.39992.57814.60444.86687-.20463-.28873-.39637-.57837-.60478-.8671v7.45902c.00017-.00023.0004-.00046.00057-.00069v.0008c.06227-.06405.12065-.13222.18257-.19672.25338-.26364.50006-.53437.74714-.80454-.307.33685-.61251.67542-.92994,1.00184v4.44228c.00006.00023.00017.00034.00023.00046v.00023c-.00006,0-.00017-.00023-.00023-.00034v1.71575c.04789.08708.09464.17461.14179.26215.0951.17622.19008.35255.28546.52819l-.00006.00011c-.1435-.26341-.2822-.52784-.42753-.79022v1.0841c.02469-.01673.04904-.03368.07361-.05041-.0244.0165-.04846.03391-.07304.05018v.00023c-.00023.00011-.00046.00023-.00069.00046v.89345c.00023-.00011.00046-.00023.00069-.00046v.00092c.13176-.08708.26157-.17782.39202-.26742.01507-.01031.03025-.02039.04531-.03071-.14551.10014-.29039.20108-.43744.29824v3.60806c.69873-.30855,1.38079-.63955,2.05942-.97537-.26048.1289-.5275.24908-.79045.37466-.42249.20165-.83914.41098-1.26977.60163v.83158c.00029-.00023.00063-.00034.00092-.00046v.00023c.34321-.14895.67295-.31623,1.01169-.47113.39282-.17965.78638-.35839,1.17313-.54629.17266-.08398.35214-.15823.5236-.24381.00011-.00011.00017-.00011.00029-.00023h.00006c.00006.00023.00017.00034.00023.00046-.00017.00023-.0004.00023-.00057.00034.10312.20681.20222.41304.30242.6195.04497.09269.09074.18584.1356.27842-.14499-.29904-.28867-.59785-.43813-.89815-.88692.44203-1.78988.86263-2.70877,1.26146v1.02876c.47422-.1517.93006-.32596,1.39672-.48671-.33977.11721-.67318.24232-1.01679.35461-.12821.04193-.25069.0912-.37947.13233v.00046h-.00034v.4693h-.00023v.00092c.00017,0,.0004-.00011.00057-.00023v.00023c-.00029.00011-.00063.00023-.00092.00023v.22434c.00029,0,.00063-.00011.00092-.00023v.00046c-.00017,0-.0004,0-.00057.00011v.13004c-.00011,0-.00023,0-.00034.00011v.49645c.00029,0,.00063-.00023.00092-.00023v.00023h-.00011v.03185h-.00046v.35816c.07505-.02521.14912-.05179.22342-.07814-.07413.02624-.14803.0527-.22285.07803v.00011c-.00023,0-.00046.00023-.00069.00023v.96953h.00011v1.37294c1.60759-.64379,3.19462-1.31772,4.76177-2.01582.00006,0,0,.00011.00006.00011-1.44965.64586-2.92021,1.2649-4.40429,1.86458-.1203.04858-.23642.10277-.35696.15101-.00017.00011-.0004.00023-.00057.00023v1.04377c.00017,0,.0004-.00023.00057-.00023v.00011c-.00006.00011-.00017.00011-.00023.00011v2.39254c.00006.00023.00017.00034.00023.00057v.0008c-.00017-.00046-.0004-.00103-.00057-.0016v1.89288c-.00006,0-.00006.00011-.00011.00011v.52647c.27612.79171.52126,1.58697.7783,2.38097.08398.25951.17226.51833.25435.77819-.33324-1.05431-.66636-2.10863-1.03277-3.15916v2.82231l-1.86034-2.49566h-.00011l-.16436-.22044-.45881-.61572c-.00011,0-.00023,0-.00034.00011l-1.95876-2.62707c-.00011.00011-.00029.00023-.0004.00023l-.00011-.00023c.00023,0,.00052-.00011.00074-.00023l-.35942-.48087-.24828-.33307c-.71987.2571-1.44341.50665-2.17061.75252-.00006,0-.00006-.00011-.00011-.00023.72743-.24588,1.45108-.49565,2.17095-.75275l-1.04366-1.40033c-.00023,0-.0004,0-.00063.00011l-.00017-.00023c.00029-.00011.00063-.00011.00092-.00023l-.59029-.79217c-.00011.00011-.00023.00011-.00034.00011l-.00011-.00023c-.00011,0-.00017.00011-.00029.00011l-.28558-.38302h0l-.00034-.00046h-.00006l-.02366-.03162-.28552-.38245h-.00006l-.02996-.04125c-.00023,0-.0004,0-.00063.00011l-.00006-.00011c.00023,0,.00046,0,.00069-.00011l-.1305-.1745c-.00023,0-.00052,0-.00074.00011l-.00029-.00034-.00011-.00023c.00029,0,.00052-.00011.0008-.00023l-.10701-.14265c-.00011,0-.00017.00011-.00029.00011l-.00034-.00057c.00029-.00011.00057-.00011.00086-.00011l-.29469-.3962h-.00006l-.0122-.01489-.10701-.14356h-.00011l-.1753-.23545c-.25539.06943-.50877.14081-.76587.20841,0-.00011-.00006-.00011-.00006-.00011.17799-.04686.35392-.09578.53019-.14436.07837-.02154.15708-.04274.23562-.06416l-.22262-.29812-.26129-.3506h.00029l-1.19948-1.60794c-.00453.00183-.00911.00367-.01363.0055.00458-.00195.00934-.0039.01386-.00573l-.00017-.00023c.00006,0,.00011-.00011.00017-.00011l-.1061-.14265-.05952-.07974-.16951-.22697-.11984-.16052-1.1513-1.54446-.42759-.57379-.00011-.00011c-.00023-.00034-.00029-.00103-.00052-.00137l-.7987-1.07001c-.00017,0-.00029.00023-.00046.00023-.00006,0-.00017,0-.00023.00011v-.00011h.00023l-.09773-.13153-.32923-.44294h-.00017c0,.00011-.00011,0-.00011.00011l-3.31784-4.44972c-.00006,0-.00006.00011-.00011.00011l-.40892-.5487c-.00011,0-.00023.00011-.00034.00023l-.00052-.00069c.00006-.00011.00011-.00011.00017-.00023l-3.8529-5.16879q-.00006.00011-.00011.00011l-.25309-.33914-.12575-.16865-.01552-.02085c-.00281.00206-.00567.00412-.00854.00619.00292-.00218.00584-.00424.00876-.00642l-1.21884-1.63383c-.00052-.00115-.00109-.00206-.0016-.00321l-1.1057-1.48294-.46517-.62409-.99496-1.33468-.11944-.16029-.02887-.03781-.02057-.0275c-.00011-.00023-.00017-.00046-.00029-.00069l-.33015-.44363h.00006l-3.62112-4.85635-.00011.00023-.36205-.48602-.00006.00011-1.74858-2.34637c.47588.86435.94048,1.73259,1.39655,2.60359-.00006,0-.00023,0-.00029.00023-.45618-.87191-.92072-1.74004-1.39649-2.60336l-1.39471-1.86974c-.00006.00011-.00011.00011-.00017.00011l-.00006-.00011-.00006-.00011c.00011,0,.00017-.00011.00029-.00023l-.34544-.46448h-.00006l-1.04039-1.39529-.73064-.98007-.21895-.29377c.00046.00069.00086.00137.00132.00218l-.00109-.00149c.57803.94501,1.14672,1.8946,1.70126,2.85267-.00006,0-.00006.00011-.00011.00011-.5546-.95818-1.1234-1.90801-1.70149-2.85301l-.36463-.48866c-.00063-.00115-.00126-.00241-.00189-.00355l-.06256-.08341-.18653-.24989-.0004-.00057c.00011,0,.00029-.00011.0004-.00023l-.1305-.17484-.12466-.16774-.07608-.10243-.22749-.30397-.17375-.23316.00206.00378-.00097-.00126c-.00046-.00092-.00086-.0016-.00132-.00252l-.07974-.10701c.00052.00092.00103.00195.00155.00286l-.00023-.00034-.00155-.00275-1.06245-1.42496-.11177-.14998-.03592-.04824-.33582-.45062-.1077-.14368-.1403-.1879-.00086-.00137-.05391-.07195-.00017-.00023-.01902-.02566h-.00006c.00006,0,.00011-.00011.00017-.00011l-1.14792-1.54022c.00034.00057.00074.00115.00109.00172l-.0012-.0016-.21311-.28586-.18859-.25298-.04566-.06107-.12322-.1651-.1399-.18767-.04153-.05626c-.00011-.00011-.00017-.00034-.00029-.00046l-.97995-1.31405c-.00017.00011-.00034.00011-.00052.00023l-.00011-.00023c.00023,0,.00052-.00023.00074-.00023l-.30419-.40834c-.00023,0-.00046.00011-.00069.00023l-.00023-.00023c.00017-.00011.00029-.00011.00046-.00023l-.41556-.55683-.15754-.2115-.00034-.00046-.00017-.00023h.00006l-.18647-.25012-.10993-.14757-.17461-.23465h-.00017l-.00006-.00011h-.61756c.01604.02028.03231.04033.04841.0605.04325.05408.08645.10839.1297.16247-.05964-.07413-.11933-.14826-.17902-.22205h-1.43418c-.00023-.00023-.00052-.00046-.00074-.0008h-.78942c.00017.00011.0004.00034.00057.00057h-3.82827c-.00006,0-.00017-.00011-.00023-.00023h-.00006c-.00017,0-.00034-.00023-.00052-.00034h-.86916c.00011.00011.00023.00011.00034.00034h-1.39173v1.5314h-.00046v.45349h.00023v.00011c.00017,0,.00029-.00011.00046-.00011v1.34396c-.00011,0-.00023-.00023-.00034-.00023v.00046c-.00011,0-.00023-.00011-.00034-.00023v.64391c.00338,0,.0071-.00092.01117-.00172-.00361.0008-.00722.0008-.01071.00183v2.39976c-.00017,0-.00029,0-.00046.00011v.49645h.00034v1.82677c-.00011,0-.00023-.00023-.00034-.00023v.60908l.00011.00023v.00011c.00006.00011.00017.00011.00023.00011v.98786c-.00011,0-.00023.00011-.00034.00011v4.47241c.00011.00011.00023.00023.00034.00023v.43011c.06118-.0165.12231-.03414.18349-.05156-.04881.01386-.0975.02773-.1462.04136-.01255.00355-.02515.00722-.03764.01066v.56222c.00029-.00011.00052-.00011.0008-.00023v.00034c-.00023.00011-.00046.00023-.00069.00023v5.29929c.47428-.13004.94552-.27612,1.4178-.41682-.1411.04216-.28243.08364-.4237.12466-.33141.09647-.66121.20108-.99353.29239v.00011c-.00023.00011-.00046.00011-.00069.00023v.57723c.02515-.00676.04995-.01501.0751-.02177.21208-.05775.42244-.12443.63411-.18412-.23665.06691-.4717.14161-.70887.206v5.80411h-.00034v.59888c.00011,0,.00023-.00011.00034-.00011v5.59501c-.00006,0-.00017.00011-.00023.00011h-.00011v.61939h.00034v4.53061h-.00034v.64104h.00034v2.88899h-.00034v.66075h.00034v1.27831c.45337.07596.90073.12672,1.35221.19466-.21729-.03254-.43298-.05901-.65067-.09349-.23471-.03735-.46632-.06153-.70154-.10105h-.00034v.59602h-.00011v.04606h.00011v1.40583c.00011,0,.00023.00011.00034.00011v.54537c-.00011,0-.00023-.00011-.00034-.00011v.84384c.00011,0,.00023.00011.00034.00011v1.6556h-.00034v.87374c.0224.00183.04468.00275.06708.00458.50161.03861,1.00069.06588,1.50138.10002.50063.03426,1.00167.07023,1.50132.10002.50109.02979,1.00126.05591,1.50138.08112.50109.02544,1.00126.04675,1.50132.0676.43492.0181.87162.04388,1.30575.05866v-.00023h.00034v-2.96289c-.40256-.03575-.80741-.08204-1.21059-.12065-.39093-.03747-.78214-.07665-1.17364-.11698-.47875-.04938-.95635-.09281-1.43602-.14654-.38686-.04331-.77555-.09682-1.16299-.1431,1.66562.19867,3.32821.38016,4.98324.52681v-.20749c-.0389-.00516-.07808-.01203-.11698-.01719.03884.00538.07785.0118.11664.01684v-.00023c.00011,0,.00023.00011.00034.00011v-.81302c-.00011,0-.00023-.00011-.00034-.00011v-.00023h.00069v-.30293h.00011v-.00275c-.00029-.00011-.00052-.00011-.0008-.00023.00017,0,.0004,0,.00057.00011v-.1887h-.00057v-.00046c-.04566-.00619-.092-.01444-.13766-.02074.04594.0063.09252.01455.13846.02085v-.32573h-.00046v-.69363h-.00034c-.23385-.01604-.4721-.04824-.70664-.06657-.05528-.00435-.11131-.01123-.16665-.0157.2901.02337.58456.06256.87363.08215v-1.98981h-.00034v-.00023h.00034v-17.27265c-.04594.01684-.09269.03082-.13869.04755.04606-.01673.09269-.03128.13869-.04812v-.63256c-.00011.00011-.00023.00011-.00034.00011v-.00023c.00011-.00011.00023-.00011.00034-.00023v-3.68104c-.00011-.00023-.00023-.00023-.00034-.00046v-.0008c.00029.00034.00052.00057.0008.0008v-.69822c-.39328-.41109-.79394-.81829-1.2012-1.22285.00011-.00011.00023-.00011.00034-.00011.40725.40536.80781.81245,1.20085,1.22239v-1.69421c-.25533.10277-.51243.20165-.76897.30156.02784-.01077.05545-.02188.0833-.03277.22869-.08948.4583-.17713.68533-.26925v-.61251h.00011v-2.91156c-.00017-.00023-.0004-.00046-.00057-.00057v-.00011l.00069.00069v-.69822l-.00069-.00069v-.00023c.00029.00023.00052.00046.0008.00069v-1.64345c-.09452.03735-.18962.07379-.2846.11034.09498-.03678.19025-.0731.28483-.11056v-.58467c-.00034.00011-.00069.00034-.00103.00034v-.00069c.00011,0,.00023,0,.00034-.00011v-2.07987l1.18625,1.59064c-.00006,0-.00011.00011-.00017.00011l.24358.32722.09235.1242c.14774-.06325.29572-.1258.44375-.18847.01341-.00561.02681-.01134.04022-.01707-.16121.06852-.3227.13657-.48362.20543l2.89461,3.88579c.00017-.00011.00034-.00023.00052-.00023l.00023.00023h-.00006l.26278.35312.0845.11343c.00017,0,.00029-.00023.00046-.00023l3.35348,4.50117c.12471-.06874.24823-.13909.37254-.20853-.08851.0495-.17656.09945-.2653.14872-.03598.01994-.07155.04033-.10759.06027l.10759.14436.25092.33628c.00006-.00011.00017-.00011.00023-.00011l3.69869,4.96302c.01226-.00653.02538-.01409.03844-.02154q.00006.00011.00011.00034h.00006c-.00854.00424-.01667.00917-.02492.01398-.00447.00252-.00945.00527-.01369.00756l.00561.00756.12214.16522.09876.13245.15147.20348h.00034l.22651.30408.7936,1.06508.18131.24336,1.55432,2.08651.13594.18206.44415.5951.00069.00092.00412.00665c-.00011-.00057-.00023-.00115-.00034-.0016l.00115.0016.00825.01088.12867.17369c-.00023-.00103-.00052-.00195-.00074-.00309l.00069.00092c.00011.00057.00029.00115.0004.00183l.1022.13703.07871.10667.05723.07654.02435.03265.01701.02269.05408.07264h-.00006l.00023.00023.31812.4269.02652.03575.03655.04881.01318.01776.01335.01776.05946.07997.00017.00069.10948.14597c.00006.00023.00011.00046.00017.0008l.25367.3404.00722.00962.00659.00882.63858.85828c-.00017-.00069-.0004-.00137-.00057-.00218l.00023.00023c.00006.00034.00017.00069.00023.00103l1.13824,1.52682c.00011.00034.00029.0008.0004.00115l.47663.63955.64883.87076c-.00011-.00046-.00023-.00092-.00034-.00126l.00092.00126c-.0908-.34349-.19197-.68607-.28626-1.02922.09429.34315.19546.6855.28626,1.02899l.20096.27131c.00017-.00023.0004-.00023.00057-.00034l.41178.55259c.20589-.09189.40863-.18974.61314-.28437-.20446.09464-.40691.19248-.61326.28483l2.55111,3.42486c-.36612-1.24531-.75894-2.48775-1.16711-3.72905.03403.10346.06359.20704.09727.3105.01489.0456.02813.09132.04291.13692.35484,1.09258.70486,2.18562,1.02704,3.28164l.23797.31875.07161.09647.44306.59418.02171.0291.16768.22479.27051.3632c-.00006-.00023-.00017-.00057-.00023-.00092l.00011.00023.00011.00046,1.36653,1.83399c.00011,0,.00017-.00011.00029-.00011l.00017.00023c-.00011,0-.00023.00023-.00034.00023l.23889.32035.23133.31073c.0016-.00034.00315-.00092.00475-.00115.27693-.06451.54795-.13909.82287-.20692-.27647.06829-.54927.14368-.82763.2083l.6867.92141h-.00063l.2842.37947.07138.09533h-.00029l.00349.00527.00544.00894.04927.06531.04921.06554h-.00006l.05259.07138c.00011,0,.00023-.00011.00034-.00011l.17679.23671.20841.28002.03185.04228h.00023l.00011.00011h-.00011l.04973.0676h.00011l.00017.00023h-.00052l.06382.08547h.00034l.53082.71265h.00011l.5853.78506h-.00029l.60071.80614h.00017l.00034.00046c-.00011,0-.00017.00011-.00029.00011l.45898.61572c-.00006-.00011-.00006-.00023-.00011-.00034l.69718.93561.04698.06325.04743.0637.1596.21448c.00006,0,.00011-.00011.00017-.00011l.00029.00034.25905.34727.18893.25321.17003.22835c-.00006,0-.00006.00011-.00011.00011l2.33966,3.14128h-.00006l.43899.58777.1922.25756h.00017l.00011.00011c-.00011.00011-.00029.00011-.0004.00011l3.35084,4.49773c.19363-.09212.3876-.18446.58095-.27727-.19334.09269-.38743.18446-.58038.27738l.65044.87294h.00017l.56714.76203c.00006.00034.00011.00057.00017.00092l1.12392,1.50768s.00006.00011.00006.00023l2.24795,3.01651h5.03806c.00006.00023.00006.00046.00011.00069h.84384c0-.00023-.00006-.00023-.00006-.00034h.00017c-.07522-.37431-.16023-.75149-.24026-1.12707.08014.37557.16516.75264.24049,1.12695h2.6619v-12.05803c-.00017,0-.00029.00011-.00046.00023v-.00023c.00017-.00023.0004-.00023.00057-.00046v-1.26903c-.00006,0-.00006.00011-.00011.00011v-2.30294q-.00006-.00011-.00011-.00034v-2.31073c-.00659-.01615-.013-.03254-.01959-.04881.00665.01627.01295.03254.01971.04869v-.29572c.00011,0,.00023,0,.00034-.00011v-1.16201c-.00006,0-.00006.00011-.00011.00011v-2.599c-.47686.2225-.95738.44111-1.43699.65892.23304.52578.45509,1.05076.67822,1.57597-.09435-.22182-.191-.4442-.28701-.66625-.13113-.30328-.25699-.60598-.39156-.90983.40112-.18183.80076-.36538,1.19954-.55019.07911-.03609.15863-.07195.23711-.10862h0c.00011-.00011.00023-.00023.00034-.00023v-1.08215c-.00011.00011-.00023.00011-.00034.00011-.20005.09441-.40181.18607-.60197.28002-.41109.19271-.82115.3868-1.23649.57493-.00006,0-.00006-.00011-.00011-.00023.61664-.27968,1.22858-.56691,1.83869-.85495v-1.60496c.00011,0,.00023,0,.00034-.00011v-.11916c-.00017.00011-.00029.00011-.00046.00011v-.0912c.00017,0,.00029-.00011.00046-.00023v-.06508c.00006-.00011.00017-.00011.00023-.00023v-.67198c-.00023.00011-.00046.00011-.00069.00023v-.00034h.00011v-.07768c.00023,0,.00046-.00023.00069-.00023v-.06279c-.00029,0-.00052.00011-.0008.00023v-.00011c-.06015.02211-.12196.04274-.18235.06473.0605-.02211.12248-.04285.1828-.06508v-.1116c-.00017,0-.00029,0-.00046.00011.00017-.00011.0004-.00011.00057-.00023v-.88142c-.00006.00011-.00017.00011-.00023.00023v-2.06234c.00011-.00011.00023-.00023.00034-.00023v-.92255h.00011v-3.91019c.00006.00011.00006.00023.00011.00023v-1.63223c-.00029.00023-.00063.00057-.00092.00092ZM146.50674,27.21002c.09762-.03105.19489-.06279.29245-.09384-.09739.03151-.19489.06279-.29245.09384ZM198.82579,4.36986c-.00556.01764-.00974.03598-.01535.05362l-.00011-.00023c.00395-.0126.00693-.02555.01088-.03804.0016-.00516.00298-.01031.00458-.01535ZM141.37043,4.55272c.09659.07012.18779.14482.28392.2154-.09613-.07046-.18744-.14528-.28397-.2154h.00006Z" style="fill:#fff;"/></svg>