<?xml version="1.0" encoding="UTF-8"?><svg id="Layer_1" xmlns="http://www.w3.org/2000/svg" width="200" height="40" viewBox="0 0 200 40"><path d="M45.07691,8.88473h10.34946c7.48086,0,9.39326,4.40602,9.39326,7.98708s-1.93115,7.98708-9.39326,7.98708h-6.39341v12.59934h-3.95604V8.88473ZM49.0517,21.48407h5.23097c3.14983,0,6.28092-.71246,6.28092-4.59351s-3.14983-4.59351-6.28092-4.59351h-5.23097v9.18702Z" style="fill:#fff;"/><path d="M70.01309,8.75349c1.49992,0,2.71861,1.18119,2.73736,2.62486.01875,1.46242-1.16244,2.66236-2.66236,2.69986s-2.73736-1.10619-2.7936-2.56861c-.01875-.73121.26249-1.42492.76871-1.9499.48748-.50622,1.19994-.80621,1.9499-.80621ZM68.17569,18.33423h3.67481v19.14274h-3.67481v-19.14274Z" style="fill:#fff;"/><path d="M76.12527,18.33423h3.73105v2.96234h.09375c1.29368-2.24988,3.80605-3.59981,6.44966-3.43107,3.80605,0,7.08713,2.23113,7.08713,7.31212v12.3181h-3.67481v-11.28691c0-3.59981-2.11864-4.93099-4.48101-4.93099-3.09359,0-5.45596,1.93115-5.45596,6.37466v9.84323h-3.7498v-19.16149Z" style="fill:#fff;"/><path d="M100.29276,29.24616c0,3.33733,3.18733,5.53096,6.6184,5.53096,2.15614-.05625,4.16228-1.12494,5.38097-2.84985l2.8311,2.09989c-2.06239,2.64361-5.32472,4.12478-8.71829,3.95604-6.22467,0-10.08697-4.34977-10.08697-10.04947-.11249-2.66236.91871-5.24972,2.8311-7.14337s4.53726-2.94359,7.27462-2.9061c6.91839,0,9.562,5.15598,9.562,10.08697v1.29368h-15.69293v-.01875ZM112.06714,26.34006c-.09375-3.18733-1.9124-5.53096-5.6622-5.53096-3.20608-.01875-5.88719,2.39987-6.09343,5.53096h11.75563Z" style="fill:#fff;"/><path d="M132.85979,23.43396c-1.21869-1.40618-2.99984-2.19363-4.89349-2.13739-4.04978,0-6.13093,3.18733-6.13093,6.78714-.09375,1.70616.52497,3.35607,1.72491,4.59351s2.8686,1.93115,4.61225,1.9124c1.8374.05625,3.59981-.73121,4.76225-2.13739l2.64361,2.54987c-1.93115,1.9874-4.64975,3.05609-7.44336,2.94359-2.75611.13124-5.43721-.86246-7.38712-2.77485-1.9499-1.89365-2.99984-4.51851-2.8686-7.19962-.13125-2.69986.91871-5.32472,2.8686-7.23712s4.63101-2.94359,7.40586-2.84985c2.8311-.075,5.56846,1.0312,7.53711,3.01859l-2.8311,2.53111Z" style="fill:#fff;"/><path d="M146.60282,17.84676c5.6622.09375,10.19947,4.63101,10.14321,10.16197-.05626,5.53096-4.68725,9.97447-10.3682,9.93698-5.6622-.0375-10.25571-4.51851-10.25571-10.04947,0-2.69986,1.1062-5.26847,3.07484-7.16212,1.98739-1.89365,4.64975-2.92485,7.40586-2.88735ZM146.60282,34.57088c3.95604,0,6.44967-2.7561,6.44967-6.67465,0-3.8998-2.49362-6.6559-6.44967-6.6559s-6.46841,2.7561-6.46841,6.6559,2.49362,6.67465,6.46841,6.67465Z" style="fill:#fff;"/><path d="M160.06461,18.33423h3.73106v2.96234c1.29369-2.26863,3.8248-3.59981,6.46841-3.43107,3.80605,0,7.08713,2.23113,7.08713,7.31212v12.3181h-3.73106v-11.28691c0-3.59981-2.11864-4.93099-4.46226-4.93099-3.11233,0-5.45596,1.93115-5.45596,6.37466v9.84323h-3.61856v-19.16149h-.01876Z" style="fill:#fff;"/><path d="M184.26958,29.24616c0,3.33733,3.18733,5.53096,6.6184,5.53096,2.15614-.07499,4.16227-1.12494,5.38096-2.84985l2.8311,2.09989c-2.06239,2.62486-5.30598,4.08729-8.69955,3.8998-6.20592,0-10.08697-4.34977-10.08697-10.04947-.11249-2.66236.91871-5.26847,2.8311-7.16212,1.9124-1.9124,4.55601-2.94359,7.29337-2.88735,6.91838,0,9.56201,5.15598,9.56201,10.08697v1.29368l-15.73042.0375ZM196.02522,26.32131c-.09375-3.18733-1.89365-5.53096-5.6622-5.53096-3.20608-.01875-5.88719,2.39987-6.09343,5.53096h11.75563Z" style="fill:#fff;"/><path d="M22.69058.44767c-.39373-.46873-1.04994-.58122-1.57492-.28124l-.48747.26249-5.30597,3.01859,1.23743,2.17489,3.44982-1.96865-.84371,4.61226,2.45612.44998.86245-4.63101,2.54987,3.03734,1.9124-1.61241-3.8623-4.61226h-.01875l-.37498-.44998ZM15.24723,39.35188c1.27493,0,2.30613-1.01245,2.30613-2.24988s-1.0312-2.24988-2.30613-2.24988-2.30613,1.01245-2.30613,2.24988c-.01875,1.23744,1.0312,2.24988,2.30613,2.24988ZM18.34081,26.99628l-.82496,4.63101-2.47487-.44998.82496-4.61226-3.44982,1.9874-1.25618-2.17489,5.26847-3.01859.48747-.28124c.52497-.29998,1.18119-.18749,1.57492.28124l.37498.44998,3.91854,4.59351-1.9124,1.63116-2.53112-3.03734ZM20.34696,15.93436l-.82496,4.63101-2.47487-.44998.82496-4.59351-3.43107,1.96865-1.23743-2.17489,5.24972-2.99984v-.0375h.0375l.48747-.28124c.52497-.29998,1.18119-.18749,1.57492.28124l.37498.43123,3.89979,4.61226-1.9124,1.63116-2.56861-3.01859ZM4.16656,34.2334h-.01875l-.50622-.14999c-.54372-.14999-.89995-.67497-.86245-1.23744l.44998-6.26217,2.38112.16874-.28124,3.80605,3.69356-2.51237,1.33118,1.96865-3.61856,2.45612,3.69356,1.06869-.65622,2.28738-5.60595-1.59366ZM28.67152,36.82076l-.16874.54372c-.16874.52497-.65622.8812-1.21869.84371l-.52497-.0375-.0375.01875-.01875-.01875-5.81219-.39373.14999-2.38112,3.8623.26249-2.53112-3.54356,1.93115-1.38743,2.58736,3.63731,1.12494-3.67481,2.26863.69371-1.61242,5.43722ZM35.49616,23.92144l.28124.50622c.28124.50622.16874,1.14369-.28124,1.51867l-.41248.35623v.01875h-.01875l-4.51851,3.8248-1.57492-1.85615,2.96234-2.51237-4.44352-.78746.43123-2.39987,4.48101.78746-1.8749-3.37482,2.11864-1.18119,2.84985,5.09973ZM30.90265,13.45949l-4.01229,2.15614-1.16244-2.13739,3.95604-2.11864-3.61856-1.48117.9187-2.24988,5.51221,2.23113.01875-.01875.01875.0375.50622.20624c.54372.22499.84371.78746.74996,1.34993l-.09375.56247-1.0312,5.71845-2.39987-.43123.63747-3.8248ZM3.97906,18.48423l4.46227.74996-.41248,2.39987-4.49976-.76871,1.9124,3.37482-2.11864,1.19994L.4355,20.35913l-.28124-.48747c-.28124-.50622-.16874-1.14369.26249-1.51867l.41248-.35623v-.01875h.01875l4.46227-3.84355,1.59367,1.85615-2.92485,2.49362ZM10.70996,8.09727l2.96234,3.29983-1.81865,1.63116-3.03734-3.37482-.69371,3.84355-2.39987-.43123,1.04994-5.6997.11249-.58122c.09375-.56247.58122-.97495,1.14369-.9937l.52497-.01875.01875-.01875.01875.01875,5.96219-.24374.09375,2.43737-3.93729.13124Z" style="fill:#fff; fill-rule:evenodd;"/></svg>