<?xml version="1.0" encoding="UTF-8"?><svg xmlns="http://www.w3.org/2000/svg" width="200" height="37" xmlns:xlink="http://www.w3.org/1999/xlink" viewBox="0 0 200 37"><defs><clipPath id="clippath"><rect y="72.09999" width="200" height="200" style="fill:none;"/></clipPath></defs><g id="logo_scan2plan"><path d="M49.28297,22.66526c-.13527-.34163-.36446-.66344-.68585-.96501-.33172-.29144-.76167-.56027-1.28898-.80669-.52817-.24621-1.18386-.47497-1.96793-.68606-1.2166-.33172-2.28415-.73367-3.20435-1.20626-.91935-.47238-1.67111-.99-2.25399-1.55306-.58331-.56285-1.02317-1.18602-1.31914-1.86971-.29683-.68348-.44503-1.42727-.44503-2.23159,0-.92473.19602-1.76416.58805-2.51808s.93485-1.39711,1.62846-1.93002c.6936-.53269,1.51257-.94239,2.45776-1.22888.94476-.28649,1.97009-.42973,3.07597-.42973,1.14595,0,2.19411.16586,3.14361.49758.95036.33172,1.76675.7942,2.45044,1.3872.68326.60313,1.21617,1.31698,1.5983,2.14112.3817.82435.57298,1.72905.57298,2.71409h-4.13145c-.02025-.49241-.10813-.94476-.26365-1.35705-.15638-.41207-.38471-.76899-.68628-1.07056-.31191-.29144-.69619-.5202-1.15327-.68606-.45795-.16586-.99301-.24879-1.60605-.24879-.56307,0-1.06324.06785-1.50007.20356-.4377.1357-.8069.32418-1.10847.56544-.30157.25138-.53033.5454-.68628.88208-.15595.33689-.2335.70114-.2335,1.09318,0,.41228.10296.78407.30932,1.11579.2055.33172.50491.62833.89694.88962.39204.27141.86679.51783,1.42511.73884.55747.22122,1.18817.42736,1.89211.61821.75391.2111,1.4725.46743,2.1562.76899.68326.30157,1.31181.64837,1.88479,1.0404.8642.64341,1.55306,1.39237,2.06573,2.24667.51266.85451.76899,1.83955.76899,2.95535,0,.96501-.19386,1.8221-.58073,2.57085-.38687.74896-.92236,1.37966-1.60562,1.89233-.68369.52279-1.49792.91741-2.44268,1.18365-.94519.26624-1.97526.39957-3.09105.39957-1.09598,0-2.17903-.16349-3.24916-.49004-1.07099-.32655-2.00326-.80669-2.79724-1.43998-.75391-.62316-1.34972-1.35705-1.78656-2.20143-.4377-.84438-.65612-1.83438-.65612-2.97042h4.16161c.01982.66344.1357,1.23147.3468,1.70385.2111.4726.50749.85946.88962,1.16103.37179.30157.82155.52279,1.34972.66344.52731.14087,1.10804.2111,1.74133.2111.56264,0,1.06324-.06527,1.50007-.19602.4377-.13053.8069-.31147,1.10847-.54282.30157-.23113.53248-.51008.6936-.83685.16069-.32655.24125-.68606.24125-1.0781s-.06764-.75887-.20377-1.10072Z"/><path d="M64.7421,26.26897c.37179-.12063.69834-.29144.98009-.51266.28132-.221.49974-.48746.65612-.79915.15552-.31147.22316-.65828.20334-1.0404h3.95051c.01982.84438-.15337,1.62846-.52042,2.35221s-.86679,1.34714-1.50007,1.86971c-.63329.52279-1.36997.93248-2.20919,1.22888s-1.72625.44481-2.6611.44481c-1.26658,0-2.37763-.21368-3.3323-.64083-.9551-.42715-1.74908-1.01262-2.38237-1.75662-.64363-.74379-1.12872-1.61575-1.45527-2.61608-.32655-1.00012-.48983-2.07327-.48983-3.21922v-.45235c0-1.14595.16069-2.21888.48251-3.21922.32138-1.00012.80389-1.87208,1.44752-2.61608.6432-.74379,1.44019-1.33184,2.38969-1.76416.95036-.4321,2.05323-.64837,3.3099-.64837,1.00508,0,1.93476.15078,2.78948.45235.85429.30157,1.59313.72376,2.21651,1.26658.61304.55294,1.09038,1.21897,1.43244,1.99787.34163.77912.50232,1.65107.48251,2.61608h-3.95051c.01982-.40194-.0405-.78407-.18094-1.14595-.14087-.36188-.3468-.67335-.61821-.93485-.27141-.26129-.59839-.4698-.98009-.62575-.38213-.15574-.79915-.23371-1.2515-.23371-.66344,0-1.21143.1357-1.64353.40711-.43253.27141-.77416.63329-1.02532,1.08564-.2615.45235-.44459.97018-.55057,1.55306-.10512.5831-.15811,1.18623-.15811,1.8094v.45235c0,.63329.04997,1.24396.15078,1.83201.10038.58805.28132,1.1033.54282,1.54553.25116.45235.59581.81423,1.03265,1.08564.4377.27141.99258.40711,1.66637.40711.41185,0,.80389-.06031,1.17611-.18094Z"/><path d="M83.91868,28.80213c-.07065-.26129-.13097-.53765-.18094-.82931-.23134.25138-.49758.48768-.79915.70868-.30157.22122-.63329.41228-.99517.57298-.37222.17103-.77933.30394-1.22134.39957-.44244.09542-.91978.14324-1.43244.14324-.83448,0-1.60088-.12063-2.29922-.36188-.6992-.24125-1.29975-.57793-1.80207-1.01025-.50275-.4321-.89479-.94735-1.17611-1.54553-.28175-.59796-.42219-1.24891-.42219-1.95264,0-.9047.17577-1.70622.52774-2.40499.35154-.69856.87928-1.27412,1.58322-1.72646.63329-.41207,1.41477-.72613,2.34489-.94239.92925-.21605,1.99766-.32418,3.20392-.32418h2.33714v-.96501c0-.38191-.06031-.72613-.18094-1.03286-.12063-.30652-.30157-.57039-.54282-.79161-.25159-.23113-.56522-.40948-.94261-.53528-.37653-.12558-.81681-.18848-1.31914-.18848-.44244,0-.82457.05277-1.14595.15832-.32181.10555-.58331.25396-.78407.44481-.18094.17103-.31449.37696-.39979.61821s-.12795.50771-.12795.79915h-4.19177c0-.6936.15294-1.35188.45967-1.97526.30674-.62316.7565-1.17094,1.34972-1.64353.58288-.47238,1.29889-.84675,2.14844-1.12333.84955-.27636,1.82189-.41465,2.91787-.41465.98483,0,1.90202.12063,2.75157.36188s1.58581.59818,2.20919,1.07056c.62295.4726,1.11062,1.06819,1.46259,1.78678.35154.7188.52774,1.55069.52774,2.49546v6.99633c0,.87454.05514,1.5983.16586,2.17127.11029.57298.27141,1.0656.48251,1.47767v.25633h-4.25208c-.10081-.20097-.18611-.4321-.25633-.6936ZM81.35537,26.40468c.36188-.10038.68843-.23113.98009-.39204.29123-.16069.54282-.34422.75391-.55036.2111-.20593.37696-.41465.49758-.62575v-2.80456h-2.14112c-.65354,0-1.21143.0629-1.67369.18848-.46269.1258-.83965.2992-1.13087.5202-.29166.23134-.50792.50512-.64837.82177-.14087.31664-.2111.66108-.2111,1.03286,0,.29166.05299.56048.15811.80669.10598.24642.25892.45493.4601.62575.20076.16091.44976.28907.74616.3845.2964.09564.64104.14324,1.03308.14324.42219,0,.81423-.05019,1.17611-.15078Z"/><path d="M91.99159,13.18101h3.79973l.25633,2.26174c.2111-.30157.44201-.57793.6936-.82931.25116-.25116.5174-.47734.79915-.67852.48251-.34163,1.01025-.60313,1.58322-.78407s1.18085-.27141,1.82447-.27141c.82414,0,1.57805.12063,2.26174.36188.68326.24125,1.27649.62338,1.77924,1.14595.49241.53291.8767,1.2138,1.15327,2.04311s.41487,1.83718.41487,3.0232v10.04214h-4.19177v-9.98183c0-.6432-.07324-1.17352-.21842-1.59076-.14604-.41702-.35456-.74638-.62596-.98763s-.59839-.40948-.98009-.50512c-.38213-.09542-.81423-.14324-1.29673-.14324-.40238,0-.77158.04523-1.10804.1357-.33732.09047-.6363.22617-.89737.40711-.2111.13075-.40238.28649-.57298.46743-.17103.18094-.32698.38213-.46743.60313v11.59521h-4.20684V13.18101Z"/><path d="M109.19119,29.49573v-2.86488l7.10188-7.62962c.55273-.60313,1.02015-1.1509,1.40228-1.64353.3817-.49241.6936-.94476.93485-1.35705.23091-.40194.39979-.7789.50491-1.13087.10598-.35176.15854-.6936.15854-1.02532,0-.49241-.07065-.92968-.2111-1.31181-.14087-.38191-.33689-.70868-.58805-.98009-.2615-.26129-.57082-.46226-.92753-.60313-.35671-.14066-.75133-.2111-1.18343-.2111-.56307,0-1.05807.07798-1.485.23371-.42779.15595-.78192.3845-1.06324.68606-.29166.31169-.51266.69877-.66344,1.16103-.15078.46247-.22617.99021-.22617,1.58322h-4.20684c0-.97492.18568-1.89728.5579-2.76687.37179-.86937.89953-1.63083,1.58322-2.28436.67335-.65332,1.49017-1.16857,2.45044-1.54553.95941-.37696,2.02265-.56544,3.18884-.56544,1.11579,0,2.10321.15595,2.9631.46743.85903.31169,1.58021.74896,2.16352,1.31181.57298.56307,1.01025,1.239,1.31181,2.02803.30157.78924.45235,1.6612.45235,2.61608,0,.72376-.1133,1.41499-.33905,2.07327-.22661.65849-.54583,1.30944-.95769,1.95264-.42219.64341-.92495,1.29932-1.50783,1.96772-.58331.66861-1.23168,1.36976-1.9451,2.10342l-4.13145,4.37271h9.63503v3.36246h-14.97275Z"/><path d="M131.29942,29.49573h-4.237V7.54173h7.50899c1.19592,0,2.27682.1734,3.24183.5202s1.78915.82694,2.47284,1.43998c.67335.62338,1.19334,1.36717,1.56039,2.23159.36705.86463.55057,1.82447.55057,2.87995,0,.98526-.18352,1.89491-.55057,2.72917-.36705.83448-.88703,1.55306-1.56039,2.1562-.68369.61326-1.50783,1.09081-2.47284,1.43244-.96501.34185-2.04591.51266-3.24183.51266h-3.27199v8.05181ZM134.5714,18.00607c.60313,0,1.1257-.09047,1.56814-.27141.44201-.18094.81423-.42715,1.11579-.73884.29123-.31147.51008-.67098.65612-1.0781.14518-.40711.21842-.83168.21842-1.27412,0-.51266-.07324-.99-.21842-1.43244-.14604-.44222-.36489-.82931-.65612-1.16103-.30157-.33172-.67378-.59301-1.11579-.78407-.44244-.19085-.96501-.28649-1.56814-.28649h-3.27199v7.02649h3.27199Z"/><path d="M153.67259,6.33547v19.75257h4.67427v3.40769h-13.79664v-3.40769h4.88537V9.75824h-4.88537v-3.42277h9.12237Z"/><path d="M171.4891,28.80213c-.07065-.26129-.13097-.53765-.18094-.82931-.23134.25138-.49758.48768-.79915.70868-.30157.22122-.63329.41228-.99517.57298-.37222.17103-.77933.30394-1.22134.39957-.44244.09542-.91978.14324-1.43244.14324-.83448,0-1.60088-.12063-2.29922-.36188-.6992-.24125-1.29975-.57793-1.80207-1.01025-.50275-.4321-.89479-.94735-1.17611-1.54553-.28175-.59796-.42219-1.24891-.42219-1.95264,0-.9047.17577-1.70622.52774-2.40499.35154-.69856.87928-1.27412,1.58322-1.72646.63329-.41207,1.41477-.72613,2.34489-.94239.92925-.21605,1.99766-.32418,3.20392-.32418h2.33714v-.96501c0-.38191-.06031-.72613-.18094-1.03286-.12063-.30652-.30157-.57039-.54282-.79161-.25159-.23113-.56522-.40948-.94261-.53528-.37653-.12558-.81681-.18848-1.31914-.18848-.44244,0-.82457.05277-1.14595.15832-.32181.10555-.58331.25396-.78407.44481-.18094.17103-.31449.37696-.39979.61821s-.12795.50771-.12795.79915h-4.19177c0-.6936.15294-1.35188.45967-1.97526.30674-.62316.7565-1.17094,1.34972-1.64353.58288-.47238,1.29889-.84675,2.14844-1.12333.84955-.27636,1.82189-.41465,2.91787-.41465.98483,0,1.90202.12063,2.75157.36188s1.58581.59818,2.20919,1.07056c.62295.4726,1.11062,1.06819,1.46259,1.78678.35154.7188.52774,1.55069.52774,2.49546v6.99633c0,.87454.05514,1.5983.16586,2.17127.11029.57298.27141,1.0656.48251,1.47767v.25633h-4.25208c-.10081-.20097-.18611-.4321-.25633-.6936ZM168.92579,26.40468c.36188-.10038.68843-.23113.98009-.39204.29123-.16069.54282-.34422.75391-.55036.2111-.20593.37696-.41465.49758-.62575v-2.80456h-2.14112c-.65354,0-1.21143.0629-1.67369.18848-.46269.1258-.83965.2992-1.13087.5202-.29166.23134-.50792.50512-.64837.82177-.14087.31664-.2111.66108-.2111,1.03286,0,.29166.05299.56048.15811.80669.10598.24642.25892.45493.4601.62575.20076.16091.44976.28907.74616.3845.2964.09564.64104.14324,1.03308.14324.42219,0,.81423-.05019,1.17611-.15078Z"/><path d="M179.56159,13.18101h3.79973l.25633,2.26174c.2111-.30157.44201-.57793.6936-.82931.25116-.25116.5174-.47734.79915-.67852.48251-.34163,1.01025-.60313,1.58322-.78407s1.18085-.27141,1.82447-.27141c.82414,0,1.57805.12063,2.26174.36188.68326.24125,1.27649.62338,1.77924,1.14595.49241.53291.8767,1.2138,1.15327,2.04311s.41487,1.83718.41487,3.0232v10.04214h-4.19177v-9.98183c0-.6432-.07324-1.17352-.21842-1.59076-.14604-.41702-.35456-.74638-.62596-.98763s-.59839-.40948-.98009-.50512c-.38213-.09542-.81423-.14324-1.29673-.14324-.40238,0-.77158.04523-1.10804.1357-.33732.09047-.6363.22617-.89737.40711-.2111.13075-.40238.28649-.57298.46743-.17103.18094-.32698.38213-.46743.60313v11.59521h-4.20684V13.18101Z"/><path d="M33.87511,35.5068c-.03662-.1314-.52343-1.86195-.64104-2.20746-.38299-1.06604-3.66876-10.62374-1.09641-17.81759.19343-.54174.14561-1.12161-.13183-1.59098L24.13324.57922c-.21153-.35714-.60098-.57922-1.01585-.57922h-14.51523c-.41745,0-.80777.22402-1.01865.58439L.16134,13.27558c-.10555.18051-.16134.38644-.16134.59559v13.24908c0,.65074.52925,1.17998,1.17998,1.17998h15.09747c7.10748,0,10.51603,2.02868,15.05029,6.29153.14691.13807,1.61639,1.46604,1.61812,1.46604.12924.14217.29424.21734.45536.21734.08961,0,.17792-.02305.25849-.07065.18654-.1105.32526-.36856.2154-.69769ZM4.99027,15.65945v10.2806h-2.6303v-10.2806h2.6303ZM11.92262,2.36018l-6.42766,10.9393h-2.61371L9.27897,2.36018h2.64366ZM16.84978,2.36018l-6.42766,10.9393h-2.1898L14.65998,2.36018h2.1898ZM9.91742,15.65945v10.2806h-2.56719v-10.2806h2.56719ZM21.89002,2.36018l-6.56294,10.9393h-2.16761l6.42788-10.9393h2.30267ZM14.81507,15.65945v10.2806h-2.53768v-10.2806h2.53768ZM29.75184,15.16726v.00022c-1.54833,4.78456-.93227,10.21576-.1426,13.92954.03834.17857-.02843.34443-.17792.44352-.1202.07927-.3132.11783-.49586-.01012-3.40597-2.38474-6.933-3.45961-11.76042-3.57657v-11.14738l6.36024-10.60198,6.16056,10.41695c.09564.16134.11632.36037.05601.54583Z"/><path d="M195.05777,12.80492c.1357-.33043.31923-.61799.55143-.86312.23221-.24168.50448-.43189.81724-.57061.31277-.1385.64621-.20787,1.00077-.20787s.68843.06936,1.0012.20787c.31277.13872.58504.32892.81724.57061.23221.24513.41573.53269.551.86312.1357.33065.20334.68757.20334,1.07121s-.06764.74056-.20334,1.07099c-.13527.33065-.3188.61821-.551.86334-.23221.24491-.50448.43684-.81724.57534s-.64664.20787-1.0012.20787-.688-.06936-1.00077-.20787-.58504-.33043-.81724-.57534c-.23221-.24513-.41573-.53269-.55143-.86334-.13527-.33043-.20291-.68735-.20291-1.07099s.06764-.74056.20291-1.07121ZM195.46143,14.76833c.11158.2755.26365.51503.45709.71816.19343.20291.42004.36253.67938.47863.25978.1161.53593.17405.82931.17405s.56996-.05794.82931-.17405c.25978-.1161.48595-.27572.67938-.47863.19343-.20313.34594-.44266.45709-.71816.11115-.27572.16672-.57298.16672-.8922s-.05557-.61649-.16672-.8922-.26365-.51503-.45709-.71816-.41961-.36188-.67938-.47626c-.25935-.11438-.53593-.17168-.82931-.17168s-.56953.0573-.82931.17168c-.25935.11438-.48595.27313-.67938.47626s-.34551.44244-.45709.71816c-.11115.27572-.16672.57298-.16672.8922s.05557.61649.16672.8922ZM196.90507,15.37038h-.54627v-3.0805h1.02015c.358,0,.64406.07755.85817.23221.21454.15466.32181.38859.32181.70114,0,.18072-.05644.33366-.16931.45946s-.27572.22574-.48854.29984l.70609,1.38785h-.56091l-.56565-1.21876h-.57556v1.21876ZM197.45651,13.6633c.07065,0,.14001-.00969.20765-.02908.06764-.01917.12752-.04653.17922-.08207.05127-.03554.09262-.07905.12321-.13053.03059-.0517.0461-.11136.0461-.179,0-.17728-.04696-.29984-.14044-.36748s-.25805-.10167-.49328-.10167h-.47389v.88983h.55143Z"/></g><g id="logo_equine-coach"><g style="clip-path:url(#clippath);"><path d="M79.48775,182.10916l5.73519-14.58291c4.07587-7.04199,11.87869-11.60675,14.19677-19.67611,1.8324-.38888,1.27176.21175,1.78075,1.01478,3.53109,5.57097,2.146,12.77772,1.40221,18.90195,4.52707-4.29955,5.6305-10.83147,4.58553-16.94299-.7921-4.63262-4.64798-8.59853-2.20704-14.12729-26.27566-.63173-53.03313,8.15306-72.51519,25.88-1.98886,1.80969-10.02394,11.26359-10.75662,11.55752-1.76166.70672-2.16514-4.32712-1.60047-5.54372.4733-1.01974,4.84009-5.68382,5.9847-6.80866,22.38585-21.99929,51.78225-29.73998,82.50995-29.10603,3.76628.0777,10.9959,3.15718,12.3134-2.35377-30.88175-5.41205-67.09451,2.70014-91.20455,23.12677-3.42696,2.90341-6.56973,7.32082-9.97843,9.94102-.79914.61428-1.01118,1.54494-2.39144,1.18617-1.13897-7.97301-3.59901-16.22885-3.98101-24.30608-.88486-18.71033,7.14686-40.55703,13.94821-57.75169,1.64315-.43105,1.74772,2.69748,1.88621,3.67088,1.40986,9.90936.83229,27.54751,6.60667,35.62502,4.53577,6.34488,11.77336,1.08069,13.05291-4.99737,2.07066-9.83596.91828-26.10384-.57419-36.16632-1.98746-13.39983-6.58134-26.07245-11.01556-38.77558,15.067,11.27368,34.14453,27.83787,35.04716,48.22691.35401,7.99645-6.03916,20.2965,3.42993,25.23314,13.35714,6.96364,21.20918-18.36938,18.79212-28.35227-2.9675-12.25634-15.89441-15.14274-19.98727-25.42748-7.76261-19.50627,3.66284-52.34103,20.86789-64.30055-3.68958,18.26879-5.68422,43.78832,10.78363,56.55269,11.16281,8.65239,15.1021.32238,16.21832-10.83438,1.51629-15.15554-3.6309-25.68062-5.38139-39.84196-2.22921-18.03413.81015-35.84819,3.09183-53.68005,1.62403-.30282,1.90153.73031,2.44294,1.93157,2.80207,6.21711,4.49206,19.46569,6.5443,26.92079,2.7641,10.04103,5.67684,20.79543,9.32065,30.51877,10.19447,27.20348,36.98457,60.26669,20.57408,89.86623-4.30172,7.75899-19.23225,19.16272-6.78323,26.21935,9.08012,5.14699,17.78826.70876,21.42348-8.39194l6.22286-30.01505c8.29963,24.44506,10.02622,49.90316-.38845,74.07936-11.47335-11.33021-25.22608-20.35814-40.66503-25.29651l-1.92873,2.61449c15.06639,6.86422,31.03685,14.41408,41.24592,27.71913l-79.53837,174.25342-1.76565-1.01328c-18.16895-43.21174-40.6984-84.35982-60.37996-126.86405l.40156-1.19423c12.05934,6.96086,24.74853,12.53161,33.84507,23.52365l8.78022,13.11936c-.17415-31.90502-44.99662-41.44355-36.10814-76.34926.28494-1.11899.48633-3.94322,1.84434-4.11646,3.0955,15.11299,9.90322,29.58266,20.71871,40.62997-4.75463-10.19513-9.10325-20.22833-7.95211-31.871,9.60629,10.55745,18.38028,20.24718,22.52822,34.43396,1.4175,4.84812,1.86944,10.32705,3.20607,15.12805.22834.82018.19435,2.41241,1.34043,2.225,1.19754-11.06172.14673-20.7228-3.37053-31.27763-4.51989-13.56355-19.7094-33.76697-9.69676-46.73201,7.97568-10.32745,18.26581-6.30292,9.09155,4.70107l4.75093-1.21694,3.20858-6.73907c1.50844,6.25896-9.55317,20.16767-9.55317,24.29823v11.55343ZM137.65324,129.52924c-10.98843.43554-20.84084,8.71531-23.08231,19.52459l1.63388.87649c9.39121-.53233,16.54718-13.54322,21.44843-20.40108ZM148.80021,210.78958c-4.50018-22.36092,5.26005-52.29011-22.29413-62.1455.11106,11.07605-4.8834,17.21115-13.55306,23.09881,7.8403.30122,16.37587-3.89186,18.36536-11.90963,1.13435-.26964,1.90306.01608,2.80693.70648,5.63065,4.30081,2.69938,28.58127,6.49193,35.73646l8.18298,14.51339ZM119.32114,210.00689c-16.09553-1.27203-29.79278-10.20195-29.96588-27.63484l2.48633-15.39821c-12.19473,16.76386-9.83755,31.5719,7.32493,42.86547,7.63816,5.0262,18.84404,11.0053,24.95207,18.0745,5.70087,6.59796-.86075,16.93097,11.51132,17.97711.82069.06939,3.04296.48018,2.81426-.82545-4.35066-.73633-8.54547-4.66065-8.81702-9.18648-.11713-1.95206.83472-3.67974.68321-5.38148-.46315-5.20192-11.78437-11.96339-14.90398-16.22946l3.91476-4.26114ZM148.80055,222.74504l-15.91786-34.25554c-1.55141,4.28764-.93468,7.6041.64933,11.68469,2.79545,7.20141,10.60526,16.36632,15.26854,22.57085Z"/></g></g></svg>