<?xml version="1.0" encoding="UTF-8"?><svg id="logo_magellantv" xmlns="http://www.w3.org/2000/svg" width="200" height="100" viewBox="0 0 200 100"><path d="M98.81278.68262c-25.885-4.30484-50.42328,12.18349-56.55334,37.26653,1.30539-4.568,3.27044-8.80921,5.77111-12.6355.00122-.00174.00244-.00359.00367-.00551.18911-.28924.38133-.57605.57667-.86061.00567-.00829.01139-.01675.01722-.02521.19328-.28131.38933-.56001.58861-.8365.00639-.0091.01311-.01825.01967-.02723.20033-.278.40361-.55363.60983-.82665.00239-.00324.005-.00655.00739-.00979,1.88744-2.49751,4.01539-4.78841,6.3425-6.84429.01667-.01466.03333-.02967.05-.04433.23-.20262.46278-.40246.69611-.60039.04-.03366.07944-.0675.11944-.10093.22056-.1857.44334-.36862.66778-.55021.05389-.0438.10778-.08767.16167-.13112.21611-.17342.43389-.34464.65333-.51429.06334-.04902.12667-.09786.19-.14648.215-.1645.43056-.32691.64833-.48752.06889-.05076.13778-.10134.20722-.15186.21556-.15743.43222-.31341.65055-.46736.07167-.05006.14334-.09954.21445-.14926.21944-.15273.43944-.30408.66167-.45304.06944-.04693.14055-.09282.21055-.13941.22611-.14978.45222-.29857.68111-.44453.06333-.04039.12722-.07973.19056-.11976.23722-.15019.47556-.29927.71611-.44511.04333-.02654.08778-.05209.13167-.07851,1.13222-.68186,2.29278-1.3169,3.48056-1.90159.02278-.01124.045-.02295.06778-.03384.23278-.11438.46778-.2247.70278-.33513.09222-.04328.18389-.08801.27667-.13077.21166-.09786.425-.19225.63833-.28698.11723-.05215.235-.10528.35278-.15656.20167-.08732.40445-.17203.60722-.25662.13167-.05504.26333-.11026.395-.16409.19555-.07955.39278-.15691.58944-.23385.14111-.05504.28222-.11026.42444-.16409.19167-.07301.385-.1441.57833-.21456.14833-.054.29666-.10748.44556-.16015.18945-.06692.37944-.13269.57056-.19723.15444-.05209.30944-.10354.46444-.1543.18722-.06124.37555-.12179.56389-.18066.16-.05006.32055-.09856.48055-.14688.18667-.05603.37278-.11183.55945-.16548.165-.04728.33056-.09282.49611-.13825.18444-.05088.36889-.10179.55389-.15028.17111-.04487.34278-.08715.51444-.13012.18167-.04521.36278-.09129.545-.13444.17889-.04245.35889-.08197.53889-.12236.17667-.03952.35222-.08042.52945-.11804.195-.04124.39111-.07921.58723-.11804.16333-.03245.32555-.06679.48944-.09733.33667-.06316.67444-.12235,1.01333-.17809.14223-.02347.28556-.04401.42834-.0661.23833-.03693.47667-.07438.71611-.10768.155-.02157.31111-.03969.46611-.05971.21222-.02727.42389-.05522.63667-.07956.16333-.01863.32778-.03451.49166-.05142.20555-.0214.41055-.04297.61667-.06161.16778-.01519.33611-.02762.50389-.04108.20389-.01605.40777-.03227.61167-.04573.16945-.01105.33945-.02019.50945-.02952.20388-.01122.40777-.02191.61167-.03037.17111-.00707.34222-.0126.51389-.01777.20388-.00622.40888-.01157.61389-.01501.17166-.00294.34278-.00483.51444-.00587.20611-.00121.41222-.00104.61889.00034.17111.00121.34222.00311.51389.00622.20833.0038.41723.00949.62556.01605.17.00552.34.01087.51.01812.21278.00914.42555.02053.63833.03262.16666.00932.33389.01829.50055.02951.2189.01467.43833.03244.65778.05022.16167.01312.32333.0252.485.04004.23.02106.46.04573.69.07024.15166.01622.30333.03089.45555.0485.255.02968.51.06368.76556.09767.12722.01691.255.03176.38222.04988.38333.05401.76666.11234,1.15.17619,4.76445.79229,9.23944,2.28072,13.33778,4.34402.68334.34394,1.35556.70376,2.01723,1.07893,1.98555,1.12569,3.87333,2.39015,5.65222,3.77779,2.965,2.31303,5.62889,4.9689,7.94111,7.8975.46221.58567.91055,1.1823,1.34499,1.78924.65056.91049,1.26834,1.84411,1.85333,2.79928.77778,1.27362,1.49778,2.58501,2.15167,3.93007.65556,1.345,1.24723,2.72337,1.77222,4.13101,1.31278,3.5188,2.20834,7.21894,2.63667,11.03023.25667,2.28678.34666,4.61343.255,6.96504-.07389,1.95976-.27445,3.93655-.60389,5.92227-4.22556,25.41203-28.24944,42.58767-53.65944,38.36199-.35556-.0591-.70889-.124-1.06167-.19063-.10333-.0197-.20666-.03998-.31-.06026-.26499-.05215-.52889-.10661-.79167-.16281-.09777-.02086-.19611-.04114-.29333-.06316-.34333-.0759-.68499-.1547-1.02499-.23755-.06278-.01565-.12445-.03245-.18723-.04751-.28056-.07011-.56056-.14254-.83945-.21786-.11444-.03071-.22833-.06199-.34222-.09328-.24445-.06779-.48722-.13732-.72945-.20859-.10056-.03013-.20167-.05852-.30223-.08865-.31999-.09677-.63889-.197-.95555-.30014-.10778-.03476-.21445-.07127-.32167-.10719-.22111-.07417-.44167-.14891-.66111-.22597-.13222-.04635-.26333-.09271-.39444-.14022-.21111-.0759-.42056-.15354-.63-.23235-.11556-.04403-.23222-.08633-.34778-.13095-.29111-.11241-.58-.22829-.86722-.34591-.14389-.05909-.28723-.11936-.43-.17962-.16778-.07069-.335-.14195-.50111-.21438-.15389-.06721-.30778-.13443-.46056-.2028-.16111-.07184-.32055-.14601-.48055-.22017-.26611-.12284-.53056-.248-.79389-.37547-.13944-.06779-.27889-.135-.41778-.20395-.17334-.08633-.34611-.17441-.51889-.26364-.11611-.0591-.23167-.11936-.34722-.1802-.18-.09444-.36-.18889-.53833-.28565-.07334-.03941-.14556-.07996-.21833-.11994-.37445-.2057-.74611-.41545-1.11389-.6304-.06722-.03998-.135-.0788-.20222-.11821-.19722-.11646-.39333-.23524-.58833-.3546-.06667-.04055-.13278-.08169-.19889-.12283-.65055-.40211-1.28944-.8193-1.91666-1.25154-.02945-.02028-.05945-.04056-.08834-.06084-.21333-.14718-.42444-.29608-.635-.44674-.01778-.01332-.03556-.02607-.05333-.0394-.65722-.47223-1.30056-.96125-1.93-1.46592-.00833-.00696-.01667-.01391-.02556-.02087-.85722-.68834-1.68889-1.40566-2.49283-2.15079,7.09228,7.09958,16.38894,12.13066,27.04228,13.90251,27.14055,4.51365,52.80167-13.83124,57.31389-40.97457,4.51222-27.14333-13.83056-52.80636-40.97055-57.31984Z" style="fill-rule:evenodd;"/><path d="M192.325,41.49106h1.60278l2.27944,5.06433,2.18999-5.06433h1.60278l-3.82222,8.06055-3.85278-8.06055Z" style="fill-rule:evenodd;"/><path d="M186.86834,49.12794v-6.33516h-2.25001v-1.29141h5.94279v1.29141h-2.26056v6.33516h-1.43222Z" style="fill-rule:evenodd;"/><path d="M16.22161,57.62265l-1.02567-9.61854c-.02139-.19242-.02139-.6413-.02139-.81234-.043.12823-.23522.47025-.36344.72671l-5.64239,10.32386-5.6636-10.30243c-.14978-.27789-.27799-.55572-.36341-.76952.04279.2138.04279.53428.0214.83372l-.98322,9.61854H0l1.92348-16.62953,6.98886,12.52553c.06417.08546.25639.51307.27778.68394.04267-.17087.23506-.59848.27783-.68394l6.96744-12.50409,1.94506,16.60809h-2.15883Z" style="fill-rule:evenodd;"/><path d="M35.71333,46.21238c-.14961-.32065-.32061-.76946-.36339-.91913-.04283.14966-.19245.59848-.342.91913l-2.67156,5.81404h6.02705l-2.65011-5.81404ZM40.94972,57.69056l-1.73144-3.80468h-7.69389l-1.75267,3.80468h-2.2655l7.84372-16.7577,7.86506,16.7577h-2.26528Z" style="fill-rule:evenodd;"/><path d="M61.43444,51.49196v-1.85963h6.47555c-.04278,5.8568-3.80389,8.37882-7.71556,8.37882-4.76589,0-8.61283-3.7406-8.61283-8.35744,0-4.72386,3.67594-8.4644,8.6345-8.4644,3.82556,0,5.98445,2.09488,6.09111,2.22293l-1.06889,1.5176c-.10667-.12805-2.05167-1.88084-5.065-1.88084-3.97555,0-6.41183,2.90699-6.41183,6.64752,0,3.33443,2.69294,6.47648,6.58239,6.47648,2.77889,0,5.15111-1.75268,5.40777-4.68105h-4.31722Z" style="fill-rule:evenodd;"/><path d="M79.24834,57.66912v-16.13802h8.82722v1.81682h-6.77556v4.78789h5.45v1.83826h-5.45v5.89944l7.45945-.02144v1.81705h-9.51111Z" style="fill-rule:evenodd;"/><path d="M100.74944,57.66946v-16.15945h2.05222v14.34241h6.86056v1.81705h-8.91278Z" style="fill-rule:evenodd;"/><path d="M120.90445,57.66946v-16.15945h2.05166v14.34241h6.86056v1.81705h-8.91222Z" style="fill-rule:evenodd;"/><path d="M150.88389,46.21238c-.15055-.32065-.32111-.76946-.36445-.91913-.04278.14966-.19111.59848-.34166.91913l-2.67112,5.81404h6.02556l-2.64833-5.81404ZM156.11889,57.69056l-1.73057-3.80468h-7.69443l-1.75278,3.80468h-2.26612l7.84444-16.7577,7.86501,16.7577h-2.26556Z" style="fill-rule:evenodd;"/><path d="M168.67445,46.06254l.02055,11.62784h-2.05166l.02221-16.60815,12.2239,12.3119-.02057-11.88441h2.05168l-.02057,16.75811-12.22555-12.20529Z" style="fill-rule:evenodd;"/></svg>