<?xml version="1.0" encoding="UTF-8"?><svg id="Layer_1" xmlns="http://www.w3.org/2000/svg" width="200" height="32" viewBox="0 0 200 32"><g id="Ebene_1"><path d="M197.66137,1.11658v5.95627c-3.08579-1.16491-5.83314-1.75391-8.23765-1.75391-1.42425,0-2.5584.26374-3.41114.77364-.85283.5143-1.28804,1.14733-1.28804,1.89461,0,.99344.96268,1.87694,2.90124,2.66826l5.60025,2.72538c4.52771,2.15835,6.77396,5.02434,6.77396,8.62453,0,2.99351-1.19128,5.38046-3.5958,7.14754-2.38695,1.78477-5.60025,2.66826-9.60039,2.66826-1.84627,0-3.50341-.07909-4.976-.24616-1.47259-.15818-3.16498-.48354-5.04202-.9495v-6.23319c3.4419,1.16491,6.57612,1.75391,9.39817,1.75391,3.3672,0,5.04202-.97587,5.04202-2.94518,0-.98026-.68576-1.77148-2.07916-2.39134l-6.22011-2.65068c-2.29457-1.03738-4.00013-2.29457-5.11671-3.78473-1.09889-1.50335-1.65723-3.22649-1.65723-5.19581,0-2.75624,1.16051-4.97611,3.45508-6.6641,2.31225-1.67481,5.38056-2.51437,9.19605-2.51437,1.23961,0,2.66826.10985,4.2508.31207,1.59561.21541,3.12973.47915,4.6067.8045h-.00003Z" style="fill:#fff; fill-rule:evenodd;"/><path d="M21.49546,1.11658v5.95627c-3.08589-1.16491-5.82884-1.75391-8.23336-1.75391-1.42865,0-2.55831.26374-3.41114.77364-.85274.5143-1.28794,1.14733-1.28794,1.89461,0,.99344.97587,1.87694,2.91442,2.66826l5.60026,2.72538c4.51004,2.15835,6.76077,5.02434,6.76077,8.62453,0,2.99351-1.19567,5.38046-3.58261,7.14754-2.40452,1.78477-5.60025,2.66826-9.61358,2.66826-1.84628,0-3.50791-.07909-4.9805-.24616-1.47259-.15818-3.1474-.48354-5.03752-.9495v-6.23319c3.45508,1.16491,6.58931,1.75391,9.39378,1.75391,3.3672,0,5.04202-.97587,5.04202-2.94518,0-.98026-.68137-1.77148-2.06169-2.39134l-6.22001-2.65068c-2.31225-1.03738-4.01782-2.29457-5.11671-3.78473-1.11658-1.50335-1.66163-3.22649-1.66163-5.19581,0-2.75624,1.15173-4.97611,3.45948-6.6641C5.75415.83955,8.82675,0,12.64234,0c1.25279,0,2.66386.10985,4.26388.31207,1.58254.21541,3.11665.47915,4.58924.8045Z" style="fill:#fff; fill-rule:evenodd;"/><polygon points="27.91329 .55824 37.03464 .55824 37.03464 31.26292 27.91329 31.26292 27.91329 .55824" style="fill:#fff; fill-rule:evenodd;"/><polygon points="66.42053 .55824 66.42053 6.23329 52.86823 6.23329 52.86823 13.0423 64.62268 13.0423 64.62268 18.15901 52.86823 18.15901 52.86823 25.30666 66.69745 25.30666 66.69745 31.26292 44.08991 31.26292 44.08991 .55824 66.42053 .55824" style="fill:#fff; fill-rule:evenodd;"/><polygon points="109.0025 .55824 109.0025 31.26292 100.48741 31.26292 100.48741 11.01147 91.65238 31.54424 86.39506 31.54424 77.89796 11.01147 77.89796 31.26292 71.73947 31.26292 71.73947 .55824 82.87397 .55824 90.47429 19.35468 98.42634 .55824 109.0025 .55824" style="fill:#fff; fill-rule:evenodd;"/><polygon points="138.37561 .55824 138.37561 6.23329 124.89739 6.23329 124.89739 13.0423 136.65175 13.0423 136.65175 18.15901 124.89739 18.15901 124.89739 25.30666 138.65252 25.30666 138.65252 31.26292 116.0451 31.26292 116.0451 .55824 138.37561 .55824" style="fill:#fff; fill-rule:evenodd;"/><polygon points="170.381 .55824 170.381 31.26292 160.70612 31.26292 149.84895 11.56971 149.84895 31.26292 143.69434 31.26292 143.69434 .55824 153.65126 .55824 164.22741 19.91302 164.22741 .55824 170.381 .55824" style="fill:#fff; fill-rule:evenodd;"/></g></svg>