<?xml version="1.0" encoding="UTF-8"?><svg id="Layer_1" xmlns="http://www.w3.org/2000/svg" width="200" height="44" viewBox="0 0 200 44"><path d="M58.10945,27.27013c0,.56844-.12027,1.07035-.36082,1.5118-.23095.43399-.58481.79019-1.01727,1.02399-.44144.24054-.93664.36149-1.50508.36149h-2.81732v4.10134h3.41263c1.28469,0,2.43567-.28758,3.45899-.8634,1.00568-.55871,1.83884-1.38257,2.4088-2.38192.58187-1.00988.87684-2.14742.87684-3.41868v-13.48254h-4.45678v13.14793ZM70.10708,26.04524h9.3335v-3.76673h-9.3335v-4.27536h10.31717v-3.88095h-14.65973v20.13983h14.94731v-3.88095h-10.60476s0-4.33583,0-4.33584ZM82.11075,18.11671h5.96791v16.13928h4.45678v-16.13928h5.94102v-3.9945h-16.37243v4.00122s.00672-.00672.00673-.00672ZM113.7053,24.16524c-.35686-.18738-.73403-.33324-1.12411-.43473.29497-.08292.58173-.19267.85668-.32789.73641-.38165,1.31829-.91648,1.73285-1.60586.41524-.68938.62891-1.4782.62891-2.3752,0-1.02399-.28086-1.94048-.83586-2.75013-.55567-.80293-1.33845-1.43184-2.34228-1.88672-1.00384-.44884-2.15414-.67594-3.43883-.67594h-8.94648v20.13983h9.12051c1.35121,0,2.55595-.23382,3.61957-.70887,1.05691-.47504,1.88001-1.13082,2.46927-1.98079.58187-.84325.87617-1.80677.87617-2.89056,0-.99712-.2271-1.88672-.68938-2.67622-.45222-.78178-1.1185-1.41799-1.92032-1.83364l-.00672.00672h.00001ZM104.56531,17.50124h3.95486c.54827,0,1.03004.10079,1.45199.2943.40339.1787.74543.47191.98368.84325.23383.36082.35409.78949.35409,1.27797s-.12027.95008-.35409,1.33105c-.2345.38165-.56239.66922-.98368.87684-.42196.20762-.90372.30773-1.45199.30773h-3.95486v-4.93854.00739ZM111.37713,29.68565c-.25399.38097-.61547.67594-1.07707.88289-.46833.20762-.99711.30773-1.60586.30773h-4.12889v-5.16564h4.12889c.59531,0,1.12411.11422,1.59242.33461.4616.22106.82981.52879,1.0838.93059.25399.40113.38837.85601.38837,1.37137s-.12766.9568-.38164,1.33844h-.00001ZM131.26297,26.11915c1.11738-.53551,1.98012-1.29141,2.59626-2.26165.61547-.97024.9232-2.09434.9232-3.37903s-.30101-2.36848-.90304-3.332c-.60271-.96352-1.45872-1.70665-2.56266-2.23477-1.10462-.52879-2.3826-.78949-3.84131-.78949h-8.81814v20.13983h4.46282v-7.33323h2.904l4.0879,7.33322h5.09174l-4.60325-7.87478c.22778-.08063.45488-.16798.66922-.26809h-.00674ZM129.81769,22.00438c-.24781.4239-.6188.76231-1.06363.97024-.46228.22711-1.00384.34066-1.62602.34066h-4.01467v-5.57349h4.01467c.62219,0,1.16374.11422,1.62602.33461.44299.20748.81351.54313,1.06363.96352.24726.41457.37492.91044.37492,1.47148,0,.56239-.12766,1.05759-.37492,1.47955v.01344ZM143.655,14.1222l-7.19346,20.13983h4.53002l1.42512-4.44267h7.46761l1.52524,4.44267h4.44267l-7.36682-20.13983h-4.83037ZM143.42722,26.44704l2.31473-7.10612.27481-1.29141.27414,1.29141,2.47599,7.10612h-5.33967ZM157.33106,34.26203h4.60325V14.1222h-4.60325v20.13983ZM178.17369,27.7445l-8.66495-13.6223h-4.34255v20.13983h4.06841v-13.62297l8.61792,13.62297h4.38958V14.1222h-4.06841v13.62297-.00067ZM199.35768,25.49025c-.43473-.83653-1.05086-1.53867-1.83364-2.10778-.78278-.56844-1.68582-.94336-2.7031-1.13754l-3.42539-.70214c-.53551-.12766-.96351-.34805-1.27798-.66922-.31512-.32117-.47572-.72298-.47572-1.19801,0-.43473.11423-.80965.34805-1.13082.22777-.32117.55567-.56844.97024-.74918.41525-.18074.89699-.26742,1.44528-.26742.54894,0,1.04414.0934,1.46544.28086s.74917.44816.98367.78949c.23571.33965.35972.74431.35478,1.1577h4.46282c-.02688-1.17114-.35478-2.20857-.97024-3.1049-.61546-.90305-1.47887-1.60586-2.57611-2.1145-1.09723-.50864-2.35505-.76262-3.76069-.76262-1.40497,0-2.64934.2607-3.73986.78949-1.0905.52879-1.9472,1.25782-2.55594,2.19446-.60875.93731-.91649,2.00095-.91649,3.19829,0,.97024.19351,1.84708.5886,2.62314.38806.77523.9599,1.44373,1.66567,1.94719.72297.51535,1.55279.87617,2.50287,1.07707l3.6263.74918c.5953.1411,1.06432.4018,1.41169.77673.34805.37425.51535.83586.51535,1.39757.00543.43411-.12805.85859-.38096,1.21145-.25465.35477-.60943.62891-1.06432.82309-.45488.19418-.99039.28758-1.60587.28758s-1.19735-.10683-1.69925-.32117c-.50192-.21367-.89029-.5214-1.16442-.9232-.28086-.39441-.41457-.85669-.41457-1.37137h-4.46282c.01948,1.25782.3541,2.36176,1.0166,3.32528.65579.9568,1.55884,1.70665,2.70981,2.24149,1.15099.53551,2.46926.80293,3.95485.80293,1.48492,0,2.82336-.27414,3.97435-.82309,1.1577-.54828,2.05403-1.30485,2.7031-2.26837s.97024-2.05403.97024-3.2722c0-.99644-.22107-1.91293-.65579-2.75618l.01343.00672h.00004ZM8.73483,31.57976h11.42247v2.68764h-11.42247v-2.68764Z" style="fill:#fff;"/><path d="M13.66665,2.45919L5.37528,10.75056l-2.91609,2.91609C.88444,15.24223-.00012,17.37871,0,19.60633v20.03635C0,41.49715,1.50508,43.00223,3.35955,43.00223h20.03635c2.23074,0,4.36069-.88692,5.93968-2.45919l2.91609-2.91609,8.29137-8.29137c1.57227-1.57227,2.45919-3.70894,2.45919-5.93968V3.35955c0-1.85447-1.50508-3.35955-3.35955-3.35955h-20.03635c-2.23074,0-4.36069.88692-5.93968,2.45919ZM32.25167,37.62695V10.75056H5.37528v26.8764h26.8764Z" style="fill:#fff; fill-rule:evenodd;"/></svg>